<svg xmlns="http://www.w3.org/2000/svg" xmlns:xlink="http://www.w3.org/1999/xlink" width="1058.967" height="915.969" viewBox="0 0 1058.967 915.969">
  <defs>
    <linearGradient id="linear-gradient" x1="0.5" y1="1.873" x2="0.5" y2="0.214" gradientUnits="objectBoundingBox">
      <stop offset="0" stop-color="#fff"/>
      <stop offset="0.247" stop-color="#d8d2f9" stop-opacity="0.753"/>
      <stop offset="1" stop-color="#6349e5" stop-opacity="0"/>
    </linearGradient>
    <linearGradient id="linear-gradient-2" x1="0.5" y1="1.203" x2="0.5" y2="0.17" gradientUnits="objectBoundingBox">
      <stop offset="0" stop-color="#0e0e8c"/>
      <stop offset="1" stop-color="#6349e5" stop-opacity="0"/>
    </linearGradient>
    <clipPath id="clip-path">
      <path id="Path_8536" data-name="Path 8536" d="M1073,108.221h0a9.015,9.015,0,0,0,9.014-9.014V94.231a1.974,1.974,0,0,0-1.974-1.974h-14.085a1.973,1.973,0,0,0-1.971,1.974v4.976A9.015,9.015,0,0,0,1073,108.221Z" transform="translate(-1063.981 -92.257)" fill="none"/>
    </clipPath>
    <linearGradient id="linear-gradient-3" x1="0.5" y1="1.232" x2="1.499" y2="-0.031" gradientUnits="objectBoundingBox">
      <stop offset="0" stop-color="#0e0e8c"/>
      <stop offset="1" stop-color="#fff" stop-opacity="0"/>
    </linearGradient>
    <linearGradient id="linear-gradient-4" x1="0.5" y1="1.24" x2="0.5" y2="0.072" gradientUnits="objectBoundingBox">
      <stop offset="0" stop-color="#fff"/>
      <stop offset="0.837" stop-color="#9786ee" stop-opacity="0.337"/>
      <stop offset="1" stop-color="#6349e5" stop-opacity="0"/>
    </linearGradient>
    <linearGradient id="linear-gradient-5" x1="1.297" y1="0.5" x2="0.046" y2="0.5" gradientUnits="objectBoundingBox">
      <stop offset="0" stop-color="#fff"/>
      <stop offset="0.683" stop-color="#fff" stop-opacity="0.373"/>
      <stop offset="0.715" stop-color="#fff" stop-opacity="0.369"/>
      <stop offset="1" stop-color="#fff" stop-opacity="0.302"/>
      <stop offset="1" stop-color="#fff" stop-opacity="0"/>
    </linearGradient>
    <linearGradient id="linear-gradient-6" x1="0.5" y1="-0.01" x2="0.5" y2="0.803" xlink:href="#linear-gradient-2"/>
  </defs>
  <g id="Group_2022" data-name="Group 2022" transform="translate(-803.551 -66.775)">
    <g id="Group_1978" data-name="Group 1978" transform="translate(880.717 111.406)">
      <path id="Path_8485" data-name="Path 8485" d="M887.651,194.517c-11.9,12.99-31.24,14.64-43.208,3.684s-6.45-25.27,5.446-38.261,25.668-19.742,37.636-8.785S899.547,181.524,887.651,194.517Z" transform="translate(-817.658 35.682)" fill="#efe8fb"/>
      <path id="Path_8486" data-name="Path 8486" d="M1017.212,90.679c17.284-10.676,38.209-8.138,46.734,5.666s-2.544,27.221-19.831,37.9-34.239,14.566-42.763.762S999.925,101.355,1017.212,90.679Z" transform="translate(-519.382 -79.15)" fill="#efe8fb"/>
      <path id="Path_8487" data-name="Path 8487" d="M870.414,132.966c-5.552-.387-10.39,4.171-10.813,10.18s3.735,11.2,9.284,11.59,10.389-4.168,10.813-10.177S875.962,133.355,870.414,132.966Z" transform="translate(-776.997 11.961)" fill="#efe8fb"/>
      <path id="Path_8488" data-name="Path 8488" d="M978.527,116.93c-.708,10.086,7.579,18.885,18.5,19.653s20.361-6.789,21.068-16.877-7.577-18.885-18.5-19.65S979.235,106.845,978.527,116.93Z" transform="translate(-555.285 -49.456)" fill="#efe8fb"/>
      <path id="Path_8489" data-name="Path 8489" d="M1047.669,385.357c3.941,6.193,12.572,7.751,19.281,3.483s8.951-12.747,5.013-18.94-12.572-7.751-19.281-3.483S1043.73,379.167,1047.669,385.357Z" transform="translate(-429.915 442.779)" fill="#efe8fb"/>
      <path id="Path_8490" data-name="Path 8490" d="M1028.487,92.951c-.26,5.142.312-10.461,6.5-10.593s11.309,5.107,11.449,11.7-4.758,12.048-10.942,12.18S1028.751,87.807,1028.487,92.951Z" transform="translate(-462.151 -82.356)" fill="#efe8fb"/>
      <path id="Path_8491" data-name="Path 8491" d="M1080.488,350.625c17.284-10.676,38.209-8.141,46.734,5.663s-2.544,27.224-19.831,37.9-34.239,14.566-42.764.762S1063.2,361.3,1080.488,350.625Z" transform="translate(-401.406 405.507)" fill="#efe8fb"/>
      <path id="Path_8492" data-name="Path 8492" d="M1132.615,208.085c-6.19-16.491,1.105-34.482,16.3-40.183s25.451,5.7,31.638,22.194,5.964,31.83-9.224,37.53S1138.8,224.578,1132.615,208.085Z" transform="translate(-272.026 74.371)" fill="#efe8fb"/>
      <path id="Path_8493" data-name="Path 8493" d="M1167.063,212.1c2.862-4.769.994-11.151-4.174-14.251s-11.678-1.747-14.54,3.022-.994,11.151,4.174,14.251S1164.2,216.874,1167.063,212.1Z" transform="translate(-241.081 129.878)" fill="#efe8fb"/>
      <path id="Path_8494" data-name="Path 8494" d="M948.686,337.236c13.013,6.167,30.956,26.4,22.263,44.74s-31.076,11.295-44.09,5.127-19.117-16.488-10.424-34.826S935.676,331.066,948.686,337.236Z" transform="translate(-678.541 387.376)" fill="#efe8fb"/>
      <path id="Path_8495" data-name="Path 8495" d="M941.734,600.1c-.579-28.888-18.843-54.382-39.046-75.037s-43.417-39.011-58.444-63.691-19.9-58.636-2.128-81.422c22.715-29.132,70.188-27.178,94.757-54.763,23.66-26.562,16.158-67.768,26.482-101.806,10.727-35.373,41.85-62.417,77.051-73.694s73.832-8.2,109.13,2.779c25.591,7.957,49.913,19.934,75.991,26.112a179.4,179.4,0,0,0,117.509-12.521c29.527-14.082,54.579-35.995,82.955-52.274,46.765-26.831,104.321-37.5,155.727-21.229s94.3,62.082,99.744,115.724c5.861,57.722-29.415,117.185-10.455,172.017,23.262,67.272,117.638,94.47,129.915,164.581,5.855,33.443-10.472,68.068-35.7,90.786s-58.2,35.035-91.316,42.529c-39.678,8.98-83.181,12.87-113.988,39.438-22.469,19.378-34.428,47.834-49.6,73.327-37.315,62.7-93.256,121.7-165.626,130.978s-153.326-33.2-181.784-75.613c-16.694-24.878-50.655-66.4-80.4-70-42.844-5.188-58.687,25.815-131.742,43.142-55.582,13.179-174.389-31.69-49.392-192.051" transform="translate(-830.744 -77.69)" fill="#e9f0ff"/>
    </g>
    <g id="Group_1979" data-name="Group 1979" transform="translate(1652.604 108.535)" opacity="0.77">
      <path id="Path_8496" data-name="Path 8496" d="M1122.849,134.158h11.945a22.228,22.228,0,0,1-.169-2.638h0a22.636,22.636,0,0,1,22.638-22.635h10.358a43.015,43.015,0,0,1,80.262,0h12.271a22.636,22.636,0,0,1,22.635,22.635h0a22.976,22.976,0,0,1-.166,2.638h4.869a22.636,22.636,0,0,1,0,45.273H1122.849a22.636,22.636,0,0,1,0-45.273Z" transform="translate(-1100.214 -81.354)" fill="#6349e5" fill-rule="evenodd"/>
      <path id="Path_8497" data-name="Path 8497" d="M1122.849,134.158h11.945a22.228,22.228,0,0,1-.169-2.638h0a22.636,22.636,0,0,1,22.638-22.635h10.358a43.015,43.015,0,0,1,80.262,0h12.271a22.636,22.636,0,0,1,22.635,22.635h0a22.976,22.976,0,0,1-.166,2.638h4.869a22.636,22.636,0,0,1,0,45.273H1122.849a22.636,22.636,0,0,1,0-45.273Z" transform="translate(-1100.214 -81.354)" fill-rule="evenodd" opacity="0.5" fill="url(#linear-gradient)"/>
    </g>
    <path id="Path_8498" data-name="Path 8498" d="M821.787,214.42H831.2a17.79,17.79,0,0,1-.132-2.08h0A17.845,17.845,0,0,1,848.916,194.5h8.167a33.909,33.909,0,0,1,63.273,0h9.676a17.844,17.844,0,0,1,17.843,17.846h0a18.453,18.453,0,0,1-.129,2.08h3.839a17.844,17.844,0,0,1,0,35.688h-129.8a17.844,17.844,0,1,1,0-35.688Z" transform="translate(0 197.662)" fill="none" stroke="#f04aea" stroke-miterlimit="10" stroke-width="0.78" fill-rule="evenodd"/>
    <path id="Path_8499" data-name="Path 8499" d="M1040.226,358.547h10.787a21.164,21.164,0,0,1-.149-2.383h0a20.447,20.447,0,0,1,20.447-20.447h9.358a38.853,38.853,0,0,1,72.5,0h11.085a20.447,20.447,0,0,1,20.447,20.447h0a20.5,20.5,0,0,1-.152,2.383h4.4a20.447,20.447,0,0,1,0,40.893h-148.72a20.447,20.447,0,0,1,0-40.893Z" transform="translate(402.422 455.07)" fill="#6349e5" fill-rule="evenodd"/>
    <g id="Group_2021" data-name="Group 2021" transform="translate(929.56 66.775)">
      <g id="Group_1983" data-name="Group 1983" transform="translate(555.714 103.151)">
        <path id="Path_8500" data-name="Path 8500" d="M1114.372,111.242c-4.139-3.1-11.424-3.709-18.344-3.248-7.522.5-17.427-6.445-20.478-5.013-2.687,1.263.412,5.892,1.676,7.788-3.191-2.919-10.475-7.127-12.618-5.643s-.679,5.233,1.977,8.969c-4.454-3.019-9.232-7.668-11.756-6.356-3.1,1.613-2.191,8.866-.272,13.844a32.029,32.029,0,0,0,9.267,12.85c2.357,9.834-1.971,16.771-1.386,20.315.424,2.578,2.26,2.569,3.194,1.249a9.636,9.636,0,0,0,1.492-3.394,11.583,11.583,0,0,0,2.538,7.983,2.39,2.39,0,0,0,1.745,1.068,2.179,2.179,0,0,0,1.2-.539c2.306-1.779,3.371-4.958,4.048-8a55.964,55.964,0,0,0,1.272-10.576,33.3,33.3,0,0,1,17.468,18.648c1.9,4.924,2.827,10.461,5.878,14.594s7.167,5.9,10.163,1.7a10.161,10.161,0,0,0,1.575-5.46c1.344,1.945,2.993,2.392,4.125.556,1.361-2.2-1.644-8.573-1.209-12.317a58.8,58.8,0,0,1,.98-7.8c2.733-5.884,5.769-11.842,6.4-18.069.836-8.181-1.346-12.234-4.586-13.93C1118.723,120.463,1118.01,113.96,1114.372,111.242Z" transform="translate(-1021.283 -102.786)" fill="#5a5a5a"/>
        <path id="Path_8501" data-name="Path 8501" d="M1114.372,111.242c-4.139-3.1-11.424-3.709-18.344-3.248-7.522.5-17.427-6.445-20.478-5.013-2.687,1.263.412,5.892,1.676,7.788-3.191-2.919-10.475-7.127-12.618-5.643s-.679,5.233,1.977,8.969c-4.454-3.019-9.232-7.668-11.756-6.356-3.1,1.613-2.191,8.866-.272,13.844a32.029,32.029,0,0,0,9.267,12.85c2.357,9.834-1.971,16.771-1.386,20.315.424,2.578,2.26,2.569,3.194,1.249a9.636,9.636,0,0,0,1.492-3.394,11.583,11.583,0,0,0,2.538,7.983,2.39,2.39,0,0,0,1.745,1.068,2.179,2.179,0,0,0,1.2-.539c2.306-1.779,3.371-4.958,4.048-8a55.964,55.964,0,0,0,1.272-10.576,33.3,33.3,0,0,1,17.468,18.648c1.9,4.924,2.827,10.461,5.878,14.594s7.167,5.9,10.163,1.7a10.161,10.161,0,0,0,1.575-5.46c1.344,1.945,2.993,2.392,4.125.556,1.361-2.2-1.644-8.573-1.209-12.317a58.8,58.8,0,0,1,.98-7.8c2.733-5.884,5.769-11.842,6.4-18.069.836-8.181-1.346-12.234-4.586-13.93C1118.723,120.463,1118.01,113.96,1114.372,111.242Z" transform="translate(-1022.283 -102.786)" opacity="0.5" fill="url(#linear-gradient-2)"/>
        <path id="Path_8502" data-name="Path 8502" d="M1073,110.239l.029.009v.046Z" transform="translate(-983.626 -88.89)" fill="#ffba9a"/>
        <path id="Path_8503" data-name="Path 8503" d="M1059.246,113.94c.066-.455.175-.877.278-1.3a24.53,24.53,0,0,0,6.256,2.143c9.267,2.286,19.244-1.828,29.745,2.3l-.275,14.669c-.014.756.246,1.79,1,1.73.41-.034.693-.412.919-.756q.7-1.074,1.412-2.148c-1.117,2.549-2.458,7.445-.556,8.169,1.676.639,4.749-4.4,5.517-7.737a6.89,6.89,0,0,1,1.47-.292,7.9,7.9,0,1,1-2.189,15.25l-.186,23.549a18.875,18.875,0,0,1,.155,2.389,18.1,18.1,0,1,1-36.035-2.529l.077-10.06c-9.5-3.251-10.891-13.051-9.559-21.73S1059.246,113.94,1059.246,113.94Z" transform="translate(-1013.741 -84.413)" fill="#fab196"/>
        <path id="Path_8504" data-name="Path 8504" d="M1072.7,125.725a4.338,4.338,0,0,1,6.116-4.681" transform="translate(-984.292 -69.483)" fill="none" stroke="#80136a" stroke-miterlimit="10" stroke-width="0.809"/>
        <path id="Path_8505" data-name="Path 8505" d="M1073.363,121.121a6.03,6.03,0,0,1,2.882,2.4" transform="translate(-982.946 -68.601)" fill="none" stroke="#80136a" stroke-miterlimit="10" stroke-width="0.809"/>
        <path id="Path_8506" data-name="Path 8506" d="M1060.387,128.934a28.161,28.161,0,0,0,10.665,1.183l-10.748,9.312Z" transform="translate(-1007.294 -54.034)" fill="#fc4e60" opacity="0.35"/>
        <g id="Group_1980" data-name="Group 1980" transform="translate(49.043 34.043)">
          <path id="Path_8507" data-name="Path 8507" d="M1059.01,119.272c-.693-2.512,2.741-4.394,4.789-4.589,1.117-.1,2.827.4,3.194,1.6.4,1.318-.773,1.888-1.79,2.277.281-.163.561-.324.842-.484a9.425,9.425,0,0,1-2.738,1.229c-.891.4-1.811,1.22-2.827,1.1a1.6,1.6,0,0,1-1.469-1.137Z" transform="translate(-1058.919 -114.67)" fill="#f04aea"/>
        </g>
        <path id="Path_8508" data-name="Path 8508" d="M1062.512,119.77c-.011,1.289-.544,2.335-1.188,2.329s-1.16-1.057-1.149-2.349.541-2.332,1.186-2.329S1062.521,118.478,1062.512,119.77Z" transform="translate(-1007.535 -75.499)" fill="#80136a"/>
        <g id="Group_1981" data-name="Group 1981" transform="translate(66.206 33.849)">
          <path id="Path_8509" data-name="Path 8509" d="M1071.938,120.212c-1.246.172-2.028-.49-3.128-.951a9.866,9.866,0,0,1-2.893-1.246l.834.493c-1.029-.364-2.166-.974-1.753-2.277.358-1.131,2.016-1.7,3.1-1.621,2.117.146,5.566,1.962,4.924,4.54a1.487,1.487,0,0,1-1.08,1.063Z" transform="translate(-1064.911 -114.603)" fill="#f04aea"/>
        </g>
        <path id="Path_8510" data-name="Path 8510" d="M1065.736,119.792c-.008,1.292.507,2.343,1.152,2.349s1.177-1.037,1.189-2.329-.507-2.343-1.151-2.346S1065.748,118.5,1065.736,119.792Z" transform="translate(-997.166 -75.416)" fill="#80136a"/>
        <path id="Path_8511" data-name="Path 8511" d="M1065.022,117.461c.839,2.727-.524,5.167-2.807,6.878-1.679,1.258.5,3.97,2.753,3.291" transform="translate(-1004.84 -75.425)" fill="none" stroke="#80136a" stroke-miterlimit="10" stroke-width="0.809"/>
        <path id="Path_8512" data-name="Path 8512" d="M1065.739,123.415c-.433,1.455-2.53,2.117-4.681,1.475s-3.549-2.34-3.117-3.8,2.529-2.114,4.683-1.472S1066.171,121.96,1065.739,123.415Z" transform="translate(-1011.846 -71.852)" fill="#fc4e60" opacity="0.35"/>
        <path id="Path_8513" data-name="Path 8513" d="M1074.718,121.456c.315,1.484-1.212,3.065-3.409,3.529s-4.237-.361-4.549-1.848,1.212-3.065,3.412-3.529S1074.406,119.969,1074.718,121.456Z" transform="translate(-995.333 -71.663)" fill="#fc4e60" opacity="0.35"/>
        <path id="Path_8514" data-name="Path 8514" d="M1041.8,164.55a18.88,18.88,0,0,1,8.33-15.7c11.036-9.218,29.951-13.348,44.224-15.124a21.244,21.244,0,0,0,18.2,9.937h.031v-.026c.083,0,.163.006.243.011s.16-.009.243-.011v.023l.031,0a21.24,21.24,0,0,0,18.158-10.011c20.435,2.458,51.047.7,67.464,14.3,5.05,3.383-14.8,9.776-14.787,16.313.006,2.555-9.736,14.958-10.65,17.184l-6.56,19.461-1.315,82.2s-15.1,5.755-52.016,5.915v0h-.275l-.275,0v-.006c-36.917-.011-52.042-5.706-52.042-5.706l.627-82.2-18.184-29.358A18.827,18.827,0,0,1,1041.8,164.55Z" transform="translate(-1041.798 -45.245)" fill="#6349e5"/>
        <path id="Path_8515" data-name="Path 8515" d="M1094.157,134.505c-3.85,11.04-17.536,17.336-29.026,15.167" transform="translate(-998.294 -43.647)" fill="none" stroke="#fff" stroke-miterlimit="10" stroke-width="0.893"/>
        <path id="Path_8516" data-name="Path 8516" d="M1069.914,146.848a21.658,21.658,0,0,1-12.125-12.409" transform="translate(-1011.983 -43.77)" fill="none" stroke="#fff" stroke-miterlimit="10" stroke-width="0.893"/>
        <g id="Group_1982" data-name="Group 1982" transform="translate(56.745 52.234)">
          <path id="Path_8517" data-name="Path 8517" d="M1065.12,123.742a8.22,8.22,0,0,0,4.643-1.418c1.343-.791,2.922-1.988,4.331-.808,2.6,2.174.017,6.239-1.931,7.568a7.475,7.475,0,0,1-8.817-.195C1060.414,126.466,1061.316,122.868,1065.12,123.742Z" transform="translate(-1061.608 -121.021)" fill="#80136a"/>
          <path id="Path_8518" data-name="Path 8518" d="M1063.476,126.992a9.22,9.22,0,0,1,4.34-4.237,7.42,7.42,0,0,1,4.537-.5,7.584,7.584,0,0,1-3,4.809,7.736,7.736,0,0,1-6.233,1.083c0-.031,0-.06,0-.092A2.885,2.885,0,0,1,1063.476,126.992Z" transform="translate(-1058.796 -119.003)" fill="#ff5e69"/>
        </g>
      </g>
      <g id="Group_1984" data-name="Group 1984" transform="translate(102 253.504)">
        <path id="Path_8519" data-name="Path 8519" d="M1546.355,614.766H925.669c-23.342,0-42.265-18.355-42.265-41v-377.5c0-22.641,18.923-41,42.265-41h620.686c23.343,0,42.265,18.355,42.265,41v377.5C1588.62,596.411,1569.7,614.766,1546.355,614.766Z" transform="translate(-883.404 -155.275)" fill="#a67bf2"/>
        <rect id="Rectangle_530" data-name="Rectangle 530" width="705.215" height="337.952" transform="translate(0.001 46.03)" fill="#0e0e8c"/>
        <rect id="Rectangle_531" data-name="Rectangle 531" width="705.215" height="307.111" transform="translate(0.001 76.871)" fill="#f7f7f7"/>
        <ellipse id="Ellipse_100" data-name="Ellipse 100" cx="22.738" cy="22.056" rx="22.738" ry="22.056" transform="translate(329.87 399.238)" fill="#f7f7f7"/>
        <path id="Path_8520" data-name="Path 8520" d="M1119.849,180.95a6.64,6.64,0,1,0,6.637-6.436A6.541,6.541,0,0,0,1119.849,180.95Z" transform="translate(-442.561 -119.405)" fill="#f7f7f7"/>
        <path id="Path_8521" data-name="Path 8521" d="M1111.611,180.95a6.64,6.64,0,1,0,6.637-6.436A6.543,6.543,0,0,0,1111.611,180.95Z" transform="translate(-457.921 -119.405)" fill="#f7f7f7"/>
        <path id="Path_8522" data-name="Path 8522" d="M1103.116,180.95a6.64,6.64,0,1,0,6.637-6.436A6.541,6.541,0,0,0,1103.116,180.95Z" transform="translate(-473.759 -119.405)" fill="#f7f7f7"/>
      </g>
      <g id="Group_1985" data-name="Group 1985" transform="translate(658.057 195.328)">
        <path id="Path_8523" data-name="Path 8523" d="M1087.732,167.7a17.358,17.358,0,0,1-2.1-24.116c.255-.3.831-1.959,1.1-2.24l-.026-.066a13.752,13.752,0,0,1,6.806-4.168,16.424,16.424,0,0,1,2.59-.61c23.709-4.245,74.874,20.75,90,35.476.014.011,1.278.862,1.853,1.363a14.509,14.509,0,0,1,1.756,20.16,13.812,13.812,0,0,1-18.682,2.3c-34.958-18.267-73.723-23.93-73.723-23.93l-.031-.08A16.861,16.861,0,0,1,1087.732,167.7Z" transform="translate(-1069.724 -132.994)" fill="#ffaf8f"/>
        <path id="Path_8524" data-name="Path 8524" d="M1138.635,184.035c-24.1-7.218-42.38-7.579-42.38-7.579l-.687-2.108a18.668,18.668,0,0,1-13.12-30.412c.278-.335.576-.639.871-.948l-.026-.069c1.793-2.163,4.652-5.064,7.791-6.041a32.906,32.906,0,0,1,3.624-1.532c11.977-2.32,36.113,6.488,54.222,12.9C1148.93,148.25,1145.046,162.028,1138.635,184.035Z" transform="translate(-1076.251 -134.965)" fill="#6349e5"/>
        <path id="Path_8525" data-name="Path 8525" d="M1094.913,162.966c.023-.006,1.547-.518,1.547-.518,16.516-5.159,62.437-14.331,62.626-14.371a14.465,14.465,0,0,1,6.2,28.258c-.1.023-.2.031-.3.052-19.241,4.89-60.987,8.029-60.987,8.029v-.069h-.009a12.844,12.844,0,0,1-12.893-12.8C1091.064,164.459,1087.687,164.2,1094.913,162.966Z" transform="translate(-1053.75 -111.152)" fill="#ffaf8f"/>
        <path id="Path_8526" data-name="Path 8526" d="M1088.05,135.1c-1.73,11.452-1.326,33.732.547,45.164" transform="translate(-1059.959 -134.718)" fill="none" stroke="#fff" stroke-miterlimit="10" stroke-width="0.847"/>
        <path id="Path_8527" data-name="Path 8527" d="M1087.524,158.065c1.211-2.578,2.979-8.212,4.188-10.79" transform="translate(-1058.886 -112.015)" fill="none" stroke="#fff" stroke-miterlimit="10" stroke-width="0.847"/>
        <path id="Path_8528" data-name="Path 8528" d="M1097.662,156.134c11.355-3.612,28.384-6.193,41.285-7.224" transform="translate(-1039.984 -108.966)" fill="none" stroke="#80136a" stroke-miterlimit="10" stroke-width="0.809"/>
        <path id="Path_8529" data-name="Path 8529" d="M1093.535,158.4s-11.979.1-14.059-1.742c-1.667-1.478,5.382-3.071,15.073-3.887,7.313-.616,32.787.249,32.827.241a11.043,11.043,0,1,1,4.658,21.589,11.177,11.177,0,0,1-1.748.221l.011.1s-22.681,3.031-28.773-4.566c0,0-6.534,4.615-11.985,6.4-5.646,1.853,4.03-7.872,4.03-7.872s-10.636,6.749-12.377,4.577,11.4-9.138,11.4-9.138-5.059,2.211-9.035,3.856C1077.124,170.846,1070.693,169.053,1093.535,158.4Z" transform="translate(-1077.526 -102.18)" fill="#ffaf8f"/>
        <path id="Path_8530" data-name="Path 8530" d="M1096.041,174.765c4.319-11.277,7.032-24.371,9.8-36.124" transform="translate(-1043.006 -128.112)" fill="none" stroke="#fff" stroke-miterlimit="10" stroke-width="0.847"/>
      </g>
      <g id="Group_1989" data-name="Group 1989" transform="translate(611.371 17.808)">
        <path id="Path_8531" data-name="Path 8531" d="M1061.228,97.029a16.9,16.9,0,1,1,26.579,13.853,5.094,5.094,0,0,0-2.168,4.176h-15.021a5.064,5.064,0,0,0-2.14-4.156A16.87,16.87,0,0,1,1061.228,97.029Z" transform="translate(-1061.228 -59.685)" fill="#ffdc8a"/>
        <path id="Path_8532" data-name="Path 8532" d="M1073,108.221h0a9.015,9.015,0,0,0,9.014-9.014V94.231a1.974,1.974,0,0,0-1.974-1.974h-14.085a1.973,1.973,0,0,0-1.971,1.974v4.976A9.015,9.015,0,0,0,1073,108.221Z" transform="translate(-1056.095 -37.073)" fill="#0e0e8c"/>
        <path id="Path_8533" data-name="Path 8533" d="M1073.014,101.152V87.537h-7.23v13.427" transform="translate(-1052.734 -45.873)" fill="none" stroke="#fff" stroke-miterlimit="10" stroke-width="0.362"/>
        <path id="Path_8534" data-name="Path 8534" d="M1064.625,87.025a1.875,1.875,0,0,1,2.627-.378c.831.622,1.28,3.3,1.28,3.3s-2.7.327-3.532-.3A1.88,1.88,0,0,1,1064.625,87.025Z" transform="translate(-1055.593 -48.232)" fill="none" stroke="#fff" stroke-miterlimit="10" stroke-width="0.362"/>
        <path id="Path_8535" data-name="Path 8535" d="M1072.156,87.025a1.875,1.875,0,0,0-2.627-.378c-.831.622-1.281,3.3-1.281,3.3s2.7.327,3.529-.3A1.879,1.879,0,0,0,1072.156,87.025Z" transform="translate(-1048.138 -48.232)" fill="none" stroke="#fff" stroke-miterlimit="10" stroke-width="0.362"/>
        <g id="Group_1987" data-name="Group 1987" transform="translate(7.886 55.184)">
          <g id="Group_1986" data-name="Group 1986" clip-path="url(#clip-path)">
            <rect id="Rectangle_532" data-name="Rectangle 532" width="19.53" height="1.803" transform="translate(18.686 7.613) rotate(180)" fill="#6349e5"/>
            <rect id="Rectangle_533" data-name="Rectangle 533" width="19.53" height="1.803" transform="translate(18.686 10.887) rotate(180)" fill="#6349e5"/>
            <rect id="Rectangle_534" data-name="Rectangle 534" width="19.53" height="1.803" transform="translate(18.686 14.132) rotate(180)" fill="#6349e5"/>
            <rect id="Rectangle_535" data-name="Rectangle 535" width="19.53" height="1.803" transform="translate(18.967 4.339) rotate(180)" fill="#6349e5"/>
          </g>
        </g>
        <g id="Group_1988" data-name="Group 1988" transform="translate(3.62)">
          <line id="Line_61" data-name="Line 61" x2="0.003" y2="12.181" transform="translate(12.457)" fill="none" stroke="#0e0e8c" stroke-miterlimit="10" stroke-width="0.792"/>
          <path id="Path_8537" data-name="Path 8537" d="M1073.865,75.149q-2.053,3.021-4.1,6.044" transform="translate(-1048.935 -68.971)" fill="none" stroke="#0e0e8c" stroke-miterlimit="10" stroke-width="0.792"/>
          <path id="Path_8538" data-name="Path 8538" d="M1062.492,75.214q2.05,3.021,4.1,6.041" transform="translate(-1062.492 -68.849)" fill="none" stroke="#0e0e8c" stroke-miterlimit="10" stroke-width="0.792"/>
        </g>
      </g>
      <path id="Path_8539" data-name="Path 8539" d="M1076.019,450.439H911.611a17.725,17.725,0,0,1-17.723-17.725V207.541a17.723,17.723,0,0,1,17.723-17.725h164.409a17.723,17.723,0,0,1,17.722,17.725V432.714A17.725,17.725,0,0,1,1076.019,450.439Z" transform="translate(-761.857 162.63)" fill="#6e56e7"/>
      <path id="Path_8540" data-name="Path 8540" d="M1076.019,450.439H911.611a17.725,17.725,0,0,1-17.723-17.725V207.541a17.723,17.723,0,0,1,17.723-17.725h164.409a17.723,17.723,0,0,1,17.722,17.725V432.714A17.725,17.725,0,0,1,1076.019,450.439Z" transform="translate(-761.857 162.63)" opacity="0.5" fill="url(#linear-gradient-3)"/>
      <rect id="Rectangle_536" data-name="Rectangle 536" width="78.41" height="136.387" rx="4.333" transform="translate(146.842 451.023)" fill="#f7f7f7"/>
      <rect id="Rectangle_537" data-name="Rectangle 537" width="78.41" height="136.387" rx="4.333" transform="translate(238.667 451.023)" fill="#f7f7f7"/>
      <path id="Path_8541" data-name="Path 8541" d="M1230.51,351.862H987.443A16.243,16.243,0,0,1,971.2,335.62V206.057a16.243,16.243,0,0,1,16.241-16.242H1230.51a16.241,16.241,0,0,1,16.241,16.242V335.62A16.241,16.241,0,0,1,1230.51,351.862Z" transform="translate(-617.709 162.63)" fill="#6349e5"/>
      <path id="Path_8542" data-name="Path 8542" d="M1038.484,333.3H987.443A16.243,16.243,0,0,1,971.2,317.06V268.522a16.241,16.241,0,0,1,16.241-16.242h51.042a16.239,16.239,0,0,1,16.241,16.242V317.06A16.241,16.241,0,0,1,1038.484,333.3Z" transform="translate(-617.709 279.091)" fill="#6349e5"/>
      <path id="Path_8543" data-name="Path 8543" d="M1072.226,333.3h-51.042a16.243,16.243,0,0,1-16.241-16.242V268.522a16.241,16.241,0,0,1,16.241-16.242h51.042a16.239,16.239,0,0,1,16.241,16.242V317.06A16.241,16.241,0,0,1,1072.226,333.3Z" transform="translate(-554.801 279.091)" fill="#3737fa"/>
      <path id="Path_8544" data-name="Path 8544" d="M1105.966,333.3h-51.039a16.244,16.244,0,0,1-16.244-16.242V268.522a16.242,16.242,0,0,1,16.244-16.242h51.039a16.24,16.24,0,0,1,16.242,16.242V317.06A16.242,16.242,0,0,1,1105.966,333.3Z" transform="translate(-491.892 279.091)" fill="#6349e5"/>
      <path id="Path_8545" data-name="Path 8545" d="M1187.4,270.837H1090.92a16.241,16.241,0,0,1-16.241-16.242V206.057a16.243,16.243,0,0,1,16.241-16.242H1187.4a16.243,16.243,0,0,1,16.241,16.242V254.6A16.241,16.241,0,0,1,1187.4,270.837Z" transform="translate(-424.78 162.63)" fill="#6349e5"/>
      <path id="Path_8546" data-name="Path 8546" d="M1187.4,392.49H1090.92a16.241,16.241,0,0,1-16.241-16.242V238.586a16.243,16.243,0,0,1,16.241-16.242H1187.4a16.243,16.243,0,0,1,16.241,16.242V376.249A16.241,16.241,0,0,1,1187.4,392.49Z" transform="translate(-424.78 223.277)" fill="#6349e5"/>
      <path id="Path_8547" data-name="Path 8547" d="M1187.4,392.49H1090.92a16.241,16.241,0,0,1-16.241-16.242V238.586a16.243,16.243,0,0,1,16.241-16.242H1187.4a16.243,16.243,0,0,1,16.241,16.242V376.249A16.241,16.241,0,0,1,1187.4,392.49Z" transform="translate(-424.78 223.277)" opacity="0.5" fill="url(#linear-gradient-4)"/>
      <path id="Path_8548" data-name="Path 8548" d="M1246.751,223.932V206.914c0-9.444-7.27-17.1-16.241-17.1H987.443c-8.969,0-16.241,7.654-16.241,17.1v17.018Z" transform="translate(-617.709 162.63)" fill="#0e0e8c"/>
      <path id="Path_8549" data-name="Path 8549" d="M1246.751,223.932V206.914c0-9.444-7.27-17.1-16.241-17.1H987.443c-8.969,0-16.241,7.654-16.241,17.1v17.018Z" transform="translate(-617.709 162.63)" opacity="0.5" fill="url(#linear-gradient-5)"/>
      <path id="Path_8550" data-name="Path 8550" d="M1093.742,223.932V206.914c0-9.444-5.273-17.1-11.779-17.1H905.669c-6.508,0-11.781,7.654-11.781,17.1v17.018Z" transform="translate(-761.857 162.63)" fill="#35359f"/>
      <g id="Group_1991" data-name="Group 1991" transform="translate(524.357 201.265)">
        <path id="Path_8551" data-name="Path 8551" d="M1087.215,160.407a17.354,17.354,0,0,0-17.949-16.244c-.4.017-.779.069-1.163.115l-.037-.057a13.728,13.728,0,0,0-7.433,2.9,16.873,16.873,0,0,0-2.051,1.7c-17.705,16.33-29.982,71.609-27.384,92.557,0,.02-.083,1.541-.031,2.3a14.511,14.511,0,0,0,15,13.578,13.813,13.813,0,0,0,13.122-13.5c6.563-38.894,25.471-73.207,25.471-73.207l-.046-.072A16.854,16.854,0,0,0,1087.215,160.407Z" transform="translate(-1030.851 -123.79)" fill="#ffaf8f"/>
        <path id="Path_8552" data-name="Path 8552" d="M1067.415,207.038a175.075,175.075,0,0,1,22.435-38.106l-2.068-1.057A18.667,18.667,0,0,0,1073,138.237c-.435,0-.86.029-1.286.054l-.037-.066a15.426,15.426,0,0,0-8.39,2.721,18.562,18.562,0,0,0-2.386,1.724c-9.493,7.66-19.335,25.729-26.109,43.706C1034.786,186.377,1046.465,197.749,1067.415,207.038Z" transform="translate(-1023.514 -134.825)" fill="#6349e5"/>
        <path id="Path_8553" data-name="Path 8553" d="M1048.217,137.038c-1.341,18.808-.622,23.741,1.982,45.877" transform="translate(-999.704 -137.038)" fill="none" stroke="#fff" stroke-miterlimit="10" stroke-width="0.847"/>
        <path id="Path_8554" data-name="Path 8554" d="M1063.086,243.152a.615.615,0,0,0-.02-.066l.023-.006c-3.606-27.333-3.26-55.848-3.265-56.04a14.466,14.466,0,0,0-28.917.914c0,.1.02.2.026.309-.029,19.851,7.156,61.1,7.156,61.1l.066-.017,0,.006a12.841,12.841,0,0,0,15.563,9.367C1060.6,257,1063.656,250.462,1063.086,243.152Z" transform="translate(-1030.761 -69.93)" fill="#ffaf8f"/>
        <g id="Group_1990" data-name="Group 1990" transform="translate(5.252 152.739)">
          <path id="Path_8555" data-name="Path 8555" d="M1058.229,200.13a13.175,13.175,0,0,0-.773-2.211,12.979,12.979,0,0,0-24.692,6.86l-.049.009c2.475,15.033,4.552,32.463,9.5,31.919,1.644-.18,2.466-2.289,2.466-2.289s.65,2.154,2.564,1.891,2.355-3.108,2.355-3.108.848,2.108,2.214,1.922,2.352-2.569,2.352-2.569a4.431,4.431,0,0,0,.51.524c4.162,13.853,8.662,14.463,6.757,5.637-1.372-6.356-1.472-9.043-2.564-12.965-.017-1.123-.057-1.908-.057-1.908,4.8-3.561,1.8-10.077-.352-23.752Z" transform="translate(-1032.684 -190.36)" fill="#fab196"/>
          <path id="Path_8556" data-name="Path 8556" d="M1042.374,205.864c-.258-.516-.515-3.612-.862-5.849" transform="translate(-1016.226 -172.359)" fill="none" stroke="#80136a" stroke-miterlimit="10" stroke-width="0.809"/>
        </g>
        <path id="Path_8557" data-name="Path 8557" d="M1047.019,151.621a11.077,11.077,0,0,0,4.125,4.709" transform="translate(-1000.706 -109.849)" fill="none" stroke="#fff" stroke-miterlimit="10" stroke-width="0.847"/>
        <path id="Path_8558" data-name="Path 8558" d="M1048.444,153.242q1.04,4.383,2.077,8.771" transform="translate(-998.049 -106.826)" fill="none" stroke="#fff" stroke-miterlimit="10" stroke-width="0.847"/>
        <path id="Path_8559" data-name="Path 8559" d="M1036.408,151.432c8.51,9.178,20.767,16.837,32.512,21.16" transform="translate(-1020.49 -110.201)" fill="none" stroke="#fff" stroke-miterlimit="10" stroke-width="0.847"/>
      </g>
      <path id="Path_8560" data-name="Path 8560" d="M1057.406,199.4a5.153,5.153,0,1,0-5.153,5.153A5.152,5.152,0,0,0,1057.406,199.4Z" transform="translate(-476.198 170.891)" fill="#f7f7f7"/>
      <path id="Path_8561" data-name="Path 8561" d="M1063.6,199.4a5.153,5.153,0,1,0-5.153,5.153A5.152,5.152,0,0,0,1063.6,199.4Z" transform="translate(-464.644 170.891)" fill="#f7f7f7"/>
      <path id="Path_8562" data-name="Path 8562" d="M1069.6,199.4a5.155,5.155,0,1,0-5.156,5.153A5.154,5.154,0,0,0,1069.6,199.4Z" transform="translate(-453.463 170.891)" fill="#f7f7f7"/>
      <path id="Path_8563" data-name="Path 8563" d="M953.711,199.4a5.153,5.153,0,1,0-5.153,5.153A5.152,5.152,0,0,0,953.711,199.4Z" transform="translate(-669.534 170.891)" fill="#f7f7f7"/>
      <path id="Path_8564" data-name="Path 8564" d="M959.911,199.4a5.155,5.155,0,1,0-5.156,5.153A5.154,5.154,0,0,0,959.911,199.4Z" transform="translate(-657.98 170.891)" fill="#f7f7f7"/>
      <path id="Path_8565" data-name="Path 8565" d="M965.908,199.4a5.155,5.155,0,1,0-5.153,5.153A5.153,5.153,0,0,0,965.908,199.4Z" transform="translate(-646.799 170.891)" fill="#f7f7f7"/>
      <rect id="Rectangle_538" data-name="Rectangle 538" width="99.927" height="86.424" rx="4.333" transform="translate(375.098 406.461)" fill="#f7f7f7"/>
      <path id="Path_8566" data-name="Path 8566" d="M1039.465,276.15a9.759,9.759,0,1,0-10.117,0c-7.083,2.495-12.24,10.094-12.24,19.086h34.6C1051.705,286.244,1046.549,278.645,1039.465,276.15Z" transform="translate(-532.118 289.864)" fill="#cdb8f2"/>
      <path id="Path_8567" data-name="Path 8567" d="M1036.656,281.076a11.578,11.578,0,1,0-12,0c-8.407,2.962-14.523,11.976-14.523,22.646h41.045C1051.176,293.053,1045.06,284.038,1036.656,281.076Z" transform="translate(-545.126 292.764)" fill="#f7f7f7"/>
      <rect id="Rectangle_539" data-name="Rectangle 539" width="121.533" height="6.752" rx="0.681" transform="translate(487.179 426.379)" fill="#ffdc8a"/>
      <rect id="Rectangle_540" data-name="Rectangle 540" width="121.533" height="6.752" rx="0.681" transform="translate(487.179 406.461)" fill="#ffdc8a"/>
      <rect id="Rectangle_541" data-name="Rectangle 541" width="121.533" height="6.752" rx="0.681" transform="translate(487.179 446.297)" fill="#ffdc8a"/>
      <rect id="Rectangle_542" data-name="Rectangle 542" width="121.533" height="6.752" rx="0.681" transform="translate(487.179 466.215)" fill="#ffdc8a"/>
      <rect id="Rectangle_543" data-name="Rectangle 543" width="63.298" height="6.752" rx="0.681" transform="translate(487.179 486.133)" fill="#ffdc8a"/>
      <text id="_..._" data-name="{...}" transform="translate(679.608 405.808)" fill="#fff" font-size="45" font-family="SegoeUI, Segoe UI"><tspan x="0" y="0">{...}</tspan></text>
      <path id="Path_8568" data-name="Path 8568" d="M1001.553,258.377l7.746,15.58,16.486,2.025-12.95,10.881,3.695,17.605-14.976-8.855-14.976,8.855,3.695-17.605-12.95-10.881,16.486-2.025Z" transform="translate(-606.298 290.459)" fill="#0e0e8c"/>
      <path id="Path_8569" data-name="Path 8569" d="M1001.553,258.377l7.746,15.58,16.486,2.025-12.95,10.881,3.695,17.605-14.976-8.855-14.976,8.855,3.695-17.605-12.95-10.881,16.486-2.025Z" transform="translate(-606.298 290.459)" fill="#fff"/>
      <g id="Group_2000" data-name="Group 2000" transform="translate(619.317 484.108)">
        <path id="Path_8570" data-name="Path 8570" d="M1170.42,244.135c-7.024-5.806-18.656-9.289-28.378-8.135s-19.292,6.207-24.159,13.429c-9.438,13.993-1.75,34.511-14.8,46.244-2.615,2.352-6.17,5.259-4.583,8.2,1.773,3.28,7.519,2.294,11.386.785-.621,3.119,2.025,6.448,5.669,7.13s7.7-1.389,8.691-4.437c1.822,4.938,7.955,8.467,14.044,8.083s11.541-4.646,12.475-9.759c1.713,4.32,5.706,8.436,11.054,8.911s10.876-4.529,8.459-8.6c3.993,2.97,8.866,5.924,14.119,5.248s8.8-7.281,4.394-9.8c3.392,2.277,8.41,4.555,11.621,2.094,3.329-2.549,1.708-7.531-1.04-10.541-5.612-6.147-10.627-14.726-9.808-26.608.725-10.553-3.632-26.218-17.972-21.409" transform="translate(-1000.411 -235.78)" fill="#5a5a5a"/>
        <path id="Path_8571" data-name="Path 8571" d="M1109.419,250.85c.06-.43.16-.828.255-1.229,1.59.908,28.347-9.857,38.329-6.03-.052,4.635,2.807,26.261,3.509,23.1a6.922,6.922,0,0,1,1.389-.289,7.485,7.485,0,1,1-1.959,14.466s.166,23.8.166,24.571a17.151,17.151,0,1,1-34.3,0c0-.719.146-11.655.146-11.655-9.023-3.011-10.418-12.28-9.221-20.515S1109.419,250.85,1109.419,250.85Z" transform="translate(-983.156 -222.756)" fill="#ffaf8f"/>
        <path id="Path_8572" data-name="Path 8572" d="M1122.385,257.465a4.111,4.111,0,0,1,5.76-4.483" transform="translate(-955.272 -204.381)" fill="none" stroke="#80136a" stroke-miterlimit="10" stroke-width="0.809"/>
        <path id="Path_8573" data-name="Path 8573" d="M1123,253.075a5.755,5.755,0,0,1,2.747,2.251" transform="translate(-954.01 -203.534)" fill="none" stroke="#80136a" stroke-miterlimit="10" stroke-width="0.809"/>
        <path id="Path_8574" data-name="Path 8574" d="M1110.711,260.575a26.652,26.652,0,0,0,10.111,1.04l-10.111,8.9Z" transform="translate(-976.914 -189.551)" fill="#fc4e60" opacity="0.35"/>
        <path id="Path_8575" data-name="Path 8575" d="M1112.694,252.435c0,1.223-.5,2.214-1.109,2.214s-1.106-.991-1.106-2.214.5-2.217,1.106-2.217S1112.694,251.212,1112.694,252.435Z" transform="translate(-977.345 -208.861)" fill="#80136a"/>
        <path id="Path_8576" data-name="Path 8576" d="M1115.749,252.435c0,1.223.5,2.214,1.108,2.214s1.106-.991,1.106-2.214-.5-2.217-1.106-2.217S1115.749,251.212,1115.749,252.435Z" transform="translate(-967.521 -208.861)" fill="#80136a"/>
        <path id="Path_8577" data-name="Path 8577" d="M1115.78,255.875c-.4,1.381-2.38,2.022-4.426,1.432s-3.38-2.191-2.979-3.572,2.38-2.022,4.423-1.432S1116.178,254.494,1115.78,255.875Z" transform="translate(-981.403 -205.383)" fill="#fc4e60" opacity="0.35"/>
        <path id="Path_8578" data-name="Path 8578" d="M1124.267,253.956c.309,1.406-1.126,2.913-3.206,3.371s-4.013-.312-4.322-1.716,1.128-2.913,3.205-3.371S1123.96,252.553,1124.267,253.956Z" transform="translate(-965.753 -205.335)" fill="#fc4e60" opacity="0.35"/>
        <path id="Path_8579" data-name="Path 8579" d="M1112.985,257.139a6.053,6.053,0,0,0,6.978-3.406" transform="translate(-972.675 -202.308)" fill="none" stroke="#80136a" stroke-miterlimit="10" stroke-width="0.809"/>
        <path id="Path_8580" data-name="Path 8580" d="M1107.095,260.532c8.4,1.515,19.845-3.277,26.4-8.74-1.166,1.83-2.6,4.076-1.186,4.933,1.747,1.06,9.673-2.873,12.168-5.162-.871,1.478-4.325,5.222-2.993,6.222s4.826-.665,6.419-2.8a68.691,68.691,0,0,0-1.9,17.636c.143,5.886,2.681,3.738,3.595,2.761,5.92-6.316,10.635-15.227,9.22-23.766a15.367,15.367,0,0,0-2.744-7.11c-3.349-4.239-9.41-4.964-14.809-5.073-6.82-.14-13.812.209-20.131,2.781s-11.919,7.723-13.475,14.365" transform="translate(-983.657 -229.009)" fill="#5a5a5a"/>
        <g id="Group_1994" data-name="Group 1994" transform="translate(130.702 33.727)">
          <g id="Group_1992" data-name="Group 1992" transform="translate(15.792)">
            <path id="Path_8581" data-name="Path 8581" d="M1120.4,250.678c-.8-.158-1.518-.6-2.34-.728a19.377,19.377,0,0,1-2.383-.264.755.755,0,0,1-.33-1.246c1.432-1.618,5.079-.865,6,1a.852.852,0,0,1-.948,1.235Z" transform="translate(-1115.144 -247.554)" fill="#ffdc8a"/>
          </g>
          <g id="Group_1993" data-name="Group 1993" transform="translate(0 0.746)">
            <path id="Path_8582" data-name="Path 8582" d="M1109.657,250.3c.541-2.128,4.308-3.3,5.924-1.81a.751.751,0,0,1-.152,1.172,16.224,16.224,0,0,1-2.424.61c-.834.232-1.515.828-2.343,1.034a.827.827,0,0,1-1.005-1.005Z" transform="translate(-1109.631 -247.815)" fill="#ffdc8a"/>
          </g>
        </g>
        <path id="Path_8583" data-name="Path 8583" d="M1115.025,250.24c.816,2.575-.456,4.9-2.6,6.534-1.581,1.2.5,3.758,2.633,3.1" transform="translate(-974.763 -208.82)" fill="none" stroke="#80136a" stroke-miterlimit="10" stroke-width="0.809"/>
        <path id="Path_8584" data-name="Path 8584" d="M1154.021,300.122c8.267,9.129,15.64,20.243,15.668,32.56.029,12.211-7.559,22.566-18.155,28.639s-22.956,8.149-35.047,9.865c-1.389,4.537,3.077,8.731,7.4,10.685,12,5.425,29.286,6.568,41.649,2.016,16.533-6.087,30.421-18.358,35.29-35.29,4.067-14.145.074-32.755-5.534-46.361-5.686-13.8-15.405-26.766-28.53-33.861a10.388,10.388,0,0,0-3.91-1.4,9.136,9.136,0,0,0-4.425.905A19.329,19.329,0,0,0,1157,302.66" transform="translate(-966.625 -177.675)" fill="#ffaf8f"/>
        <path id="Path_8585" data-name="Path 8585" d="M1162.03,289.332c4.116-7.674,1.576-17.046-5.677-20.936-.307-.166-.625-.3-.937-.441v-.06a12.01,12.01,0,0,0-7.052-1.114,14.948,14.948,0,0,0-2.38.4c-21.389,4.735-57.673,42.514-65.926,60.136-.009.017-.814,1.172-1.146,1.793-3.44,6.414-.143,14.967,5.918,18.218,5.695,3.056,11.661.258,15.356-5.322,23.958-27.527,56.7-44.1,56.7-44.1l-1.661-1.8A16.313,16.313,0,0,0,1162.03,289.332Z" transform="translate(-1038.798 -178.163)" fill="#ffaf8f"/>
        <path id="Path_8586" data-name="Path 8586" d="M1105.3,304.7s-3.807-20.853-4.127-35.2a135.366,135.366,0,0,1,27.35-4.437s2.18,8.527,17.084,8.665c14.9-.138,17.55-8.424,17.55-8.424a136.863,136.863,0,0,1,26.88,4.2c-.318,14.345-4.125,35.2-4.125,35.2,8.258,19.2-2.541,27.868-2.541,27.868l.633,51.4-38.04,5.471v.1l-.358-.052-.358.052v-.1l-38.043-5.471.636-51.4S1097.045,323.9,1105.3,304.7Z" transform="translate(-994.692 -181.172)" fill="#0e0e8c"/>
        <g id="Group_1995" data-name="Group 1995" transform="translate(105.389 177.238)">
          <path id="Path_8587" data-name="Path 8587" d="M1100.794,341.776s.361-9.994,1.226-19.364,5.17-24.159,5.17-24.159a299.375,299.375,0,0,0,39.853,3.079,228.318,228.318,0,0,0,38.679-3.678s3.921,19.424,4.612,24.758c.865,6.691,1.16,19.364,1.16,19.364,0,.507-.02,1.011-.052,1.515a20.066,20.066,0,0,1,.143,2.286v95.644h-.006l-1.129,82.179c.037.464-.925,10.031-2.389,10.18a16.989,16.989,0,0,1-29.473-.633c-.518-.069-2.017-9.55-1.933-10.238l-3.237-82.173c0-.51-.687-54.147-1.089-81.818h-12v82.792h0s-1.057,83.319-1.057,83.582c0,.645-1,8.625-2.461,8.774a16.987,16.987,0,0,1-29.473-.63c-.519-.069-2.077-6.972-2.077-8.144,0-.392-3.1-84.267-3.1-84.267,0-7.834-1.217-91.671-1.358-95.22.009-.584.032-1.163.086-1.733C1100.837,343.177,1100.794,342.478,1100.794,341.776Z" transform="translate(-1100.794 -297.655)" fill="#4e52d3"/>
          <path id="Path_8588" data-name="Path 8588" d="M1100.794,341.776s.361-9.994,1.226-19.364,5.17-24.159,5.17-24.159a299.375,299.375,0,0,0,39.853,3.079,228.318,228.318,0,0,0,38.679-3.678s3.921,19.424,4.612,24.758c.865,6.691,1.16,19.364,1.16,19.364,0,.507-.02,1.011-.052,1.515a20.066,20.066,0,0,1,.143,2.286v95.644h-.006l-1.129,82.179c.037.464-.925,10.031-2.389,10.18a16.989,16.989,0,0,1-29.473-.633c-.518-.069-2.017-9.55-1.933-10.238l-3.237-82.173c0-.51-.687-54.147-1.089-81.818h-12v82.792h0s-1.057,83.319-1.057,83.582c0,.645-1,8.625-2.461,8.774a16.987,16.987,0,0,1-29.473-.63c-.519-.069-2.077-6.972-2.077-8.144,0-.392-3.1-84.267-3.1-84.267,0-7.834-1.217-91.671-1.358-95.22.009-.584.032-1.163.086-1.733C1100.837,343.177,1100.794,342.478,1100.794,341.776Z" transform="translate(-1100.794 -288.655)" opacity="0.5" fill="url(#linear-gradient-6)"/>
          <path id="Path_8589" data-name="Path 8589" d="M1100.808,314.473c0,.089-.014.172-.014.261C1100.794,314.324,1100.8,314.258,1100.808,314.473Z" transform="translate(-1100.794 -266.522)" fill="#182138"/>
        </g>
        <g id="Group_1996" data-name="Group 1996" transform="translate(146.045 376.304)">
          <path id="Path_8590" data-name="Path 8590" d="M1129.427,367.15l.728,41.042-15.167,14.228,49.148-6.227.633-48.788s-9.487.759-18.115.759A168.859,168.859,0,0,1,1129.427,367.15Z" transform="translate(-1114.987 -367.15)" fill="#0e0e8c"/>
        </g>
        <g id="Group_1997" data-name="Group 1997" transform="translate(94.619 376.324)">
          <path id="Path_8591" data-name="Path 8591" d="M1111.219,367.644l1.157,40.824-15.342,14.225,48.939-6.227.713-49.309a86.348,86.348,0,0,1-18.241,2.008C1117.329,369.345,1111.219,367.644,1111.219,367.644Z" transform="translate(-1097.034 -367.157)" fill="#0e0e8c"/>
        </g>
        <circle id="Ellipse_101" data-name="Ellipse 101" cx="3.114" cy="3.114" r="3.114" transform="translate(154.228 184.753)" fill="#fff"/>
        <g id="Group_1998" data-name="Group 1998" transform="translate(107.77 179.765)">
          <path id="Path_8592" data-name="Path 8592" d="M1128.683,304.827a17.938,17.938,0,0,1-2.661-6.29" transform="translate(-1056.138 -298.537)" fill="none" stroke="#fff" stroke-miterlimit="10" stroke-width="0.841"/>
          <path id="Path_8593" data-name="Path 8593" d="M1137.752,306.868a17.671,17.671,0,0,1-9.779-4.913" transform="translate(-1052.5 -292.164)" fill="none" stroke="#fff" stroke-miterlimit="10" stroke-width="0.841"/>
          <path id="Path_8594" data-name="Path 8594" d="M1146.075,320.051c-10.636-1.2-20.281-10.833-22.2-21.36" transform="translate(-1060.144 -298.25)" fill="none" stroke="#fff" stroke-miterlimit="10" stroke-width="0.841"/>
          <path id="Path_8595" data-name="Path 8595" d="M1101.862,313.06c7.284-.928,14.162-7.227,15.617-14.425" transform="translate(-1101.183 -298.356)" fill="none" stroke="#fff" stroke-miterlimit="10" stroke-width="0.841"/>
          <path id="Path_8596" data-name="Path 8596" d="M1104.722,316.848c6.969-3.993,12.649-10.553,14.021-18.06" transform="translate(-1095.851 -298.069)" fill="none" stroke="#fff" stroke-miterlimit="10" stroke-width="0.841"/>
          <path id="Path_8597" data-name="Path 8597" d="M1101.625,306.978a21.639,21.639,0,0,0,5.188-1.275" transform="translate(-1101.625 -285.176)" fill="none" stroke="#fff" stroke-miterlimit="10" stroke-width="0.841"/>
          <path id="Path_8598" data-name="Path 8598" d="M1116.492,299.29c-.177,12.526-.212,17.17-.387,29.7" transform="translate(-1074.628 -297.133)" fill="none" stroke="#fff" stroke-miterlimit="10" stroke-width="0.841"/>
        </g>
        <path id="Path_8599" data-name="Path 8599" d="M1137.664,367.361l-4.152,19.152-6.587-18.746Z" transform="translate(-946.685 9.547)" opacity="0.5" style="mix-blend-mode: soft-light;isolation: isolate"/>
        <path id="Path_8600" data-name="Path 8600" d="M1112.62,318.448a77.111,77.111,0,0,0,24.981.12" transform="translate(-973.355 -81.649)" fill="none" stroke="#fff" stroke-miterlimit="10" stroke-width="0.841"/>
        <path id="Path_8601" data-name="Path 8601" d="M1142.377,265.646c-3.575,10.24-16.27,16.081-26.929,14.07" transform="translate(-968.083 -180.096)" fill="none" stroke="#fff" stroke-miterlimit="10" stroke-width="0.824"/>
        <path id="Path_8602" data-name="Path 8602" d="M1119.885,277.1a20.087,20.087,0,0,1-11.249-11.512" transform="translate(-980.783 -180.212)" fill="none" stroke="#fff" stroke-miterlimit="10" stroke-width="0.824"/>
        <path id="Path_8603" data-name="Path 8603" d="M1135.044,284.242a23.35,23.35,0,0,0-6.7-8.2" transform="translate(-944.033 -160.71)" fill="none" stroke="#fff" stroke-miterlimit="10" stroke-width="0.824"/>
        <path id="Path_8604" data-name="Path 8604" d="M1132.487,266.323c-.2,9.639-.994,19.894-3.386,29.232" transform="translate(-942.627 -178.834)" fill="none" stroke="#fff" stroke-miterlimit="10" stroke-width="0.824"/>
        <path id="Path_8605" data-name="Path 8605" d="M1102.692,284.242a23.35,23.35,0,0,1,6.7-8.2" transform="translate(-991.866 -160.71)" fill="none" stroke="#fff" stroke-miterlimit="10" stroke-width="0.824"/>
        <path id="Path_8606" data-name="Path 8606" d="M1102.921,266.51a126.78,126.78,0,0,0,3.881,28.7" transform="translate(-991.439 -178.485)" fill="none" stroke="#fff" stroke-miterlimit="10" stroke-width="0.824"/>
        <g id="Group_1999" data-name="Group 1999" transform="translate(0 90.795)">
          <path id="Path_8607" data-name="Path 8607" d="M1149.268,310.473l-5.359,11.232a15.763,15.763,0,0,0,7.436,21.011l10.81,5.159a15.763,15.763,0,0,0,21.011-7.436l5.359-11.232c3.747-7.854,2.446-16.565-5.408-20.312l-12.836-5.855A15.762,15.762,0,0,0,1149.268,310.473Z" transform="translate(-917.888 -204.044)" fill="#0e0e8c"/>
          <path id="Path_8608" data-name="Path 8608" d="M1102.611,268.1l190.668,94.883-18.847,40.932-193.379-92.648-6.348-26.956Z" transform="translate(-1044.045 -266.316)" fill="#b467f8"/>
          <path id="Path_8609" data-name="Path 8609" d="M1258.613,357.535c-59.329-29.538-139.537-69-174.165-88.1" transform="translate(-1025.881 -263.83)" fill="none" stroke="#fff" stroke-miterlimit="10" stroke-width="0.869"/>
          <path id="Path_8610" data-name="Path 8610" d="M1255.245,362.829c-59.329-29.538-172.132-87.085-172.132-87.085" transform="translate(-1028.368 -252.063)" fill="none" stroke="#fff" stroke-miterlimit="10" stroke-width="0.869"/>
          <path id="Path_8611" data-name="Path 8611" d="M1251.482,366.77c-59.329-29.538-170.857-84.536-170.857-84.536" transform="translate(-1033.009 -239.963)" fill="none" stroke="#fff" stroke-miterlimit="10" stroke-width="0.869"/>
          <path id="Path_8612" data-name="Path 8612" d="M1064.3,267.655l57.476,1.048s4.692,2.965-5.388,6.915,2.948,11.22,1.191,14.8-11.3.39-13.165,4.807,8.645,9.862,6.236,13.572-8.213-.47-10.2,3.294Z" transform="translate(-1063.441 -267.145)" fill="#ffaf8f"/>
          <path id="Path_8613" data-name="Path 8613" d="M1085.646,268.5a21.425,21.425,0,0,1-7.591,15.8L1064,267.477Z" transform="translate(-1064.002 -267.477)"/>
          <path id="Path_8614" data-name="Path 8614" d="M1158.556,298.768s-6.216,17.253-19.35,40.738c.957.768,24.76,11.727,24.76,11.727a149.462,149.462,0,0,0,19.839-40.2Z" transform="translate(-923.787 -209.136)" fill="#cdb8f2"/>
          <path id="Path_8615" data-name="Path 8615" d="M1157.048,305.311a166.88,166.88,0,0,1-14.185,27.135" transform="translate(-916.968 -196.937)" fill="none" stroke="#fff" stroke-miterlimit="10" stroke-width="0.869"/>
          <path id="Path_8616" data-name="Path 8616" d="M1151.4,300.5s-.917,3.177-2.822,8.253" transform="translate(-906.313 -205.911)" fill="none" stroke="#fff" stroke-miterlimit="10" stroke-width="0.869"/>
          <path id="Path_8617" data-name="Path 8617" d="M1164.03,301.6s-5.964,21.85-18.527,40.927" transform="translate(-912.046 -203.856)" fill="none" stroke="#fff" stroke-miterlimit="10" stroke-width="0.869"/>
        </g>
        <path id="Path_8618" data-name="Path 8618" d="M1098.015,314.267c11.085,2.017,33.958-2.721,34.142-4.787s-4.829-.67-8.353-.335c4.506-.773,11.8-3.569,11.123-5.586-.533-1.6-7.685,0-12.5.41,5.517-1.206,13.483-2.971,12.876-5.156-.636-2.289-9.573-.166-14.062.413,4.99-1.587,11.532-3.205,10.535-5.494s-13.853.854-20.535,1.26c1.887-1.762,5.669-5.165,4.408-6.425s-10.862,4.033-13.1,7.055" transform="translate(-1000.586 -137.716)" fill="#ffaf8f"/>
        <path id="Path_8619" data-name="Path 8619" d="M1144.56,296.679c-25.43,2.077-51.7-9.728-51.869-9.759a12.952,12.952,0,0,0-4.532,25.505c.092.017.183.02.275.037,21.873,7.052,47.65,6.878,61.489,4.8,13.4-2.011,4.677-5.434,4.446-11.782S1144.56,296.679,1144.56,296.679Z" transform="translate(-1038.891 -140.807)" fill="#ffaf8f"/>
        <path id="Path_8620" data-name="Path 8620" d="M1160.6,302.809c4.039,6.456,6.806,13.543,6.823,21.08.029,12.211-7.559,22.566-18.155,28.639s-19.9,8.035-31.667,7.344c-1.389,4.537,6.746,11.192,11.071,13.148,12.005,5.422,22.237,6.626,34.6,2.074,16.533-6.087,30.421-18.358,35.29-35.29,4.067-14.145.074-32.755-5.534-46.361a76.528,76.528,0,0,0-13.474-21.781" transform="translate(-964.36 -168.882)" fill="#ffaf8f"/>
        <path id="Path_8621" data-name="Path 8621" d="M1144.085,292.337a3.225,3.225,0,0,1,.45,3.712" transform="translate(-914.69 -130.332)" fill="none" stroke="#80136a" stroke-miterlimit="10" stroke-width="0.809"/>
      </g>
      <path id="Path_8622" data-name="Path 8622" d="M1080.348,290.194a4.062,4.062,0,0,0,.6,3.475" transform="translate(-414.503 349.781)" fill="none" stroke="#80136a" stroke-miterlimit="10" stroke-width="0.809"/>
      <path id="Path_8623" data-name="Path 8623" d="M1048.313,259.822v37.81l32.409-17.555Z" transform="translate(-473.937 293.154)" fill="#f04aea"/>
      <path id="Path_8624" data-name="Path 8624" d="M1048.313,259.822v37.81l32.409-17.555Z" transform="translate(-473.937 293.154)" fill="#fff"/>
      <g id="Group_2008" data-name="Group 2008" transform="translate(0 422.564)">
        <path id="Path_8625" data-name="Path 8625" d="M898.6,281.1c-2.243,2.836-4.666,5.806-8.072,7.021s-8.015-.206-8.863-3.721c-.453-1.865.226-3.838-.052-5.738-.59-4.019-4.958-6.15-7.5-9.315a22.174,22.174,0,0,1-3.489-7.7c-1.484-4.947-2.813-10.3-1.177-15.2s7.465-8.717,12.071-6.373c-3.368-3.334-1.839-9.516,1.931-12.386s8.848-3.234,13.586-3.079,9.6.708,14.116-.73c7.336-2.335,13-9.673,20.7-9.59,9.281.1,14.743,11.286,13.744,20.512a31.855,31.855,0,0,1-18.424,25.2c-4.958,2.188-10.444,3.071-15.276,5.531s-9.138,7.27-8.553,12.658" transform="translate(-808.836 -214.295)" fill="#0e0e8c"/>
        <g id="Group_2005" data-name="Group 2005" transform="translate(68.829 28.181)">
          <path id="Path_8626" data-name="Path 8626" d="M875.383,224.133l-.026.006v.046Z" transform="translate(-865.236 -224.133)" fill="#ffba9a"/>
          <path id="Path_8627" data-name="Path 8627" d="M923.671,227.771c-.063-.433-.161-.834-.258-1.237a23.334,23.334,0,0,1-5.969,1.991c-8.84,2.105-18.307-1.885-28.335,1.962q.073,6.982.152,13.967c.006.719-.249,1.7-.965,1.638-.39-.034-.656-.4-.868-.725l-1.329-2.057c1.043,2.435,2.283,7.107.467,7.783-1.6.593-4.489-4.228-5.193-7.41a6.753,6.753,0,0,0-1.4-.286,7.521,7.521,0,1,0,1.971,14.534v22.42a17.018,17.018,0,0,0-.169,2.272,17.235,17.235,0,1,0,34.471,0,16.967,16.967,0,0,0-.146-2.134V270.91c9.069-3.025,10.469-12.34,9.266-20.616S923.671,227.771,923.671,227.771Z" transform="translate(-871.824 -219.656)" fill="#ffaf8f"/>
          <path id="Path_8628" data-name="Path 8628" d="M879.359,238.9a4.13,4.13,0,0,0-5.786-4.506" transform="translate(-868.563 -205.675)" fill="none" stroke="#80136a" stroke-miterlimit="10" stroke-width="0.788"/>
          <path id="Path_8629" data-name="Path 8629" d="M876.731,234.489a5.753,5.753,0,0,0-2.758,2.266" transform="translate(-867.817 -204.825)" fill="none" stroke="#80136a" stroke-miterlimit="10" stroke-width="0.788"/>
          <path id="Path_8630" data-name="Path 8630" d="M893.894,242.026a26.824,26.824,0,0,1-10.16,1.046l10.16,8.946Z" transform="translate(-849.618 -190.772)" fill="#fc5151" opacity="0.35"/>
          <path id="Path_8631" data-name="Path 8631" d="M885.176,231.085c-.819,2.589.458,4.924,2.618,6.568,1.587,1.209-.5,3.775-2.647,3.114" transform="translate(-847.396 -211.171)" fill="none" stroke="#80136a" stroke-miterlimit="10" stroke-width="0.788"/>
          <path id="Path_8632" data-name="Path 8632" d="M887.124,236.748c.4,1.389,2.392,2.034,4.446,1.438s3.395-2.2,2.993-3.586-2.392-2.034-4.446-1.441S886.723,235.358,887.124,236.748Z" transform="translate(-843.429 -207.716)" fill="#fc5151" opacity="0.35"/>
          <path id="Path_8633" data-name="Path 8633" d="M878.636,234.82c-.31,1.412,1.134,2.927,3.222,3.389s4.033-.315,4.343-1.727-1.132-2.925-3.22-3.386S878.948,233.411,878.636,234.82Z" transform="translate(-859.201 -207.668)" fill="#fc5151" opacity="0.35"/>
          <g id="Group_2004" data-name="Group 2004" transform="translate(23.27 11.04)">
            <path id="Path_8634" data-name="Path 8634" d="M886.75,233.342c0,1.235.5,2.231,1.117,2.231s1.117-1,1.117-2.231-.5-2.229-1.117-2.229S886.75,232.11,886.75,233.342Z" transform="translate(-867.265 -222.159)" fill="#80136a"/>
            <path id="Path_8635" data-name="Path 8635" d="M883.668,233.342c0,1.235-.5,2.231-1.114,2.231s-1.117-1-1.117-2.231.5-2.229,1.117-2.229S883.668,232.11,883.668,233.342Z" transform="translate(-877.171 -222.159)" fill="#80136a"/>
            <g id="Group_2001" data-name="Group 2001">
              <path id="Path_8636" data-name="Path 8636" d="M881.441,233.424c.966.12,1.865-.682,2.719-1.043a8.642,8.642,0,0,0,2.621-1.149l-.8.467c.977-.361,2.083-.925,1.693-2.174-.352-1.143-2-1.63-3.065-1.524-1.968.189-5.213,1.934-4.577,4.348a1.52,1.52,0,0,0,1.412,1.074Z" transform="translate(-879.948 -227.987)" fill="#0e0e8c"/>
            </g>
            <g id="Group_2002" data-name="Group 2002" transform="translate(17.846 0.887)">
              <path id="Path_8637" data-name="Path 8637" d="M893.526,233.342c1.154-1.67-1.066-3.707-2.392-4.411a4.519,4.519,0,0,0-2.443-.624,2.723,2.723,0,0,0-2.323,1.174c-.911,1.888,1.69,2.541,2.893,3.134,1.269.627,3.053,2.481,4.265.728Z" transform="translate(-886.178 -228.297)" fill="#0e0e8c"/>
            </g>
            <g id="Group_2003" data-name="Group 2003" transform="translate(3.569 18.307)">
              <path id="Path_8638" data-name="Path 8638" d="M891.467,238.19a8.382,8.382,0,0,1-4.52-2.065c-1.255-.982-2.693-2.409-4.285-1.4-2.933,1.856-.859,6.328.937,7.94a7.658,7.658,0,0,0,8.971.991C895.872,241.591,895.443,237.818,891.467,238.19Z" transform="translate(-881.194 -234.378)" fill="#80136a"/>
              <path id="Path_8639" data-name="Path 8639" d="M889.563,241.44a9.431,9.431,0,0,0-3.83-4.884,7.632,7.632,0,0,0-4.534-1.12,7.765,7.765,0,0,0,2.392,5.288,7.932,7.932,0,0,0,6.178,1.939c0-.031.011-.063.011-.095A2.994,2.994,0,0,0,889.563,241.44Z" transform="translate(-881.187 -232.44)" fill="#ff5e69"/>
            </g>
          </g>
        </g>
        <path id="Path_8640" data-name="Path 8640" d="M915.482,386.777a18.619,18.619,0,1,0-37.238.2,19.418,19.418,0,0,0,.137,2.1l.063,11.991L857.2,418.621l58.277-8.949.006-22.646h-.012C915.474,386.943,915.485,386.86,915.482,386.777Z" transform="translate(-830.256 72.758)" fill="#0e0e8c"/>
        <path id="Path_8641" data-name="Path 8641" d="M884.806,386.777a18.619,18.619,0,1,1,37.238.2,18.139,18.139,0,0,1-.137,2.1l-.063,11.991,20.068,17.559-57.1-8.949-.006-22.646h.014C884.817,386.943,884.806,386.86,884.806,386.777Z" transform="translate(-778.795 72.758)" fill="#0e0e8c"/>
        <path id="Path_8642" data-name="Path 8642" d="M964.091,427.015c0-.1-.02-.2-.023-.309v-.166a20.7,20.7,0,0,0-.163-2.357c-.026-7.161-.347-92.665-.384-101.055a20.315,20.315,0,0,0,.143-2.251V294.19H864.075v26.685a20.314,20.314,0,0,0,.14,2.251c-.037,8.4-.355,93.889-.384,101.055a21.284,21.284,0,0,0-.163,2.357l0,.169c-.006.1-.023.2-.026.306a20.718,20.718,0,0,0,.069,2.157l1.848,107.581a99.728,99.728,0,0,0,38.243-1.6l1.879-108.179c0-.063-.006-.123-.006-.186.137-6.9.937-47.026,1.5-75.232H920.56c.561,28.209,1.363,68.34,1.5,75.235,0,.063-.005.12-.005.183l1.882,108.179a99.72,99.72,0,0,0,38.243,1.6l1.847-107.578A21.522,21.522,0,0,0,964.091,427.015Z" transform="translate(-818.25 -65.333)" fill="#6349e5"/>
        <path id="Path_8643" data-name="Path 8643" d="M864.265,374.292a122.218,122.218,0,0,0,38-.109" transform="translate(-817.088 83.811)" fill="none" stroke="#fff" stroke-miterlimit="10" stroke-width="0.788"/>
        <path id="Path_8644" data-name="Path 8644" d="M863.753,380.447c.9.547,1.263.948,2.16,1.5" transform="translate(-818.042 95.49)" fill="none" stroke="#fff" stroke-miterlimit="10" stroke-width="0.788"/>
        <path id="Path_8645" data-name="Path 8645" d="M862.826,381.258c.9.547,1.427.782,2.323,1.329" transform="translate(-819.771 97.002)" fill="none" stroke="#fff" stroke-miterlimit="10" stroke-width="0.788"/>
        <path id="Path_8646" data-name="Path 8646" d="M864.33,313.98c8.336-1.063,16.135-9.095,17.8-17.33" transform="translate(-816.966 -60.746)" fill="none" stroke="#fff" stroke-miterlimit="10" stroke-width="0.788"/>
        <path id="Path_8647" data-name="Path 8647" d="M867.6,318.312c7.975-4.566,14.405-12.893,15.972-21.486" transform="translate(-810.864 -60.418)" fill="none" stroke="#fff" stroke-miterlimit="10" stroke-width="0.788"/>
        <path id="Path_8648" data-name="Path 8648" d="M864.058,306.489a24.645,24.645,0,0,0,5.935-1.464" transform="translate(-817.474 -45.132)" fill="none" stroke="#fff" stroke-miterlimit="10" stroke-width="0.788"/>
        <path id="Path_8649" data-name="Path 8649" d="M922.819,374.292a122.217,122.217,0,0,1-38-.109" transform="translate(-778.76 83.811)" fill="none" stroke="#fff" stroke-miterlimit="10" stroke-width="0.788"/>
        <path id="Path_8650" data-name="Path 8650" d="M900.375,380.563c-.9.547-1.928.948-2.824,1.5" transform="translate(-755.027 95.706)" fill="none" stroke="#fff" stroke-miterlimit="10" stroke-width="0.788"/>
        <path id="Path_8651" data-name="Path 8651" d="M901.126,381.142c-.9.547-1.925.948-2.822,1.5" transform="translate(-753.621 96.786)" fill="none" stroke="#fff" stroke-miterlimit="10" stroke-width="0.788"/>
        <path id="Path_8652" data-name="Path 8652" d="M909.611,313.98c-8.336-1.063-16.138-9.095-17.8-17.33" transform="translate(-765.735 -60.746)" fill="none" stroke="#fff" stroke-miterlimit="10" stroke-width="0.788"/>
        <path id="Path_8653" data-name="Path 8653" d="M905.148,318.312c-7.975-4.566-14.405-12.893-15.975-21.486" transform="translate(-770.648 -60.418)" fill="none" stroke="#fff" stroke-miterlimit="10" stroke-width="0.788"/>
        <path id="Path_8654" data-name="Path 8654" d="M902.16,306.489a24.633,24.633,0,0,1-5.938-1.464" transform="translate(-757.505 -45.132)" fill="none" stroke="#fff" stroke-miterlimit="10" stroke-width="0.788"/>
        <path id="Path_8655" data-name="Path 8655" d="M888.693,301.85a3.168,3.168,0,1,0-3.168,3.168A3.167,3.167,0,0,0,888.693,301.85Z" transform="translate(-783.356 -56.958)" fill="#ffd7a6"/>
        <path id="Path_8656" data-name="Path 8656" d="M880.74,297.177c.2,12.412.16,26.336.364,38.748" transform="translate(-786.371 -59.764)" fill="none" stroke="#fff" stroke-miterlimit="10" stroke-width="0.788"/>
        <path id="Path_8657" data-name="Path 8657" d="M910.988,267.547a16.433,16.433,0,0,0-15.614-17.21c-.384-.017-.762,0-1.14.009l-.029-.06a13.624,13.624,0,0,0-7.5,2.134,16.285,16.285,0,0,0-2.166,1.447c-18.888,14.13-36.711,66.192-36.45,86.564,0,.02-.246,1.475-.278,2.211a13.671,13.671,0,0,0,27.2,2.572c10.536-36.814,32.515-68.131,32.515-68.131l-.034-.072A16.511,16.511,0,0,0,910.988,267.547Z" transform="translate(-847.795 -147.21)" fill="#ffaf8f"/>
        <path id="Path_8658" data-name="Path 8658" d="M881.553,313.574A253.22,253.22,0,0,1,902.065,277.9l-.037-.08a17.773,17.773,0,0,0-13.042-28.711c-.412-.017-.816,0-1.223.009l-.031-.063a14.679,14.679,0,0,0-8.078,2.294,18,18,0,0,0-2.332,1.561c-9.3,6.958-18.355,22.455-25.422,39.326C851.9,292.239,861.94,304.006,881.553,313.574Z" transform="translate(-840.142 -149.502)" fill="#0e0e8c"/>
        <path id="Path_8659" data-name="Path 8659" d="M853.126,261.563c6.826,6.78,20.054,16.379,29.26,21.7" transform="translate(-837.856 -126.165)" fill="none" stroke="#fff" stroke-miterlimit="10" stroke-width="0.869"/>
        <path id="Path_8660" data-name="Path 8660" d="M992.928,275.131c.014-6.222,1.647-13.643-3.148-16.883-10.5-8.774-33.293-10.773-46.883-12.466a20.225,20.225,0,0,1-17.327,9.461h-.029v-.023c-.08,0-.157.006-.232.011s-.152-.011-.232-.011v.023h-.029a20.227,20.227,0,0,1-17.287-9.53c-13.595,1.636-31.618,5.494-42.159,14.225a17.988,17.988,0,0,0-6.643,21.79l17.2,15.216L875.247,388s14.377,5.48,49.521,5.632v0h.26l.264,0v0c35.144-.011,49.544-5.434,49.544-5.434l-.6-91.056,3.486-26.044C978.6,268.984,992.922,277.566,992.928,275.131Z" transform="translate(-829.494 -155.717)" fill="#0e0e8c"/>
        <path id="Path_8661" data-name="Path 8661" d="M872.991,246.529c3.666,10.51,16.7,16.5,27.633,14.44" transform="translate(-800.818 -154.195)" fill="none" stroke="#fff" stroke-miterlimit="10" stroke-width="0.831"/>
        <path id="Path_8662" data-name="Path 8662" d="M885.6,258.279a20.638,20.638,0,0,0,11.544-11.813" transform="translate(-777.313 -154.313)" fill="none" stroke="#fff" stroke-miterlimit="10" stroke-width="0.831"/>
        <path id="Path_8663" data-name="Path 8663" d="M908.033,273.609a.279.279,0,0,0-.054.032l-.011-.02a392.316,392.316,0,0,1-49.707,15.485l.057.244c-.175.043-.347.072-.521.12a13.559,13.559,0,0,0,7.479,26.067c.092-.029.181-.066.272-.095,18.046-4.537,53.875-20.547,53.875-20.547l-.031-.057.006,0a12.038,12.038,0,0,0,4.932-16.293C921.189,272.678,914.36,271.1,908.033,273.609Z" transform="translate(-847.461 -105.851)" fill="#ffaf8f"/>
        <g id="Group_2006" data-name="Group 2006" transform="translate(135.931 89.682)">
          <path id="Path_8664" data-name="Path 8664" d="M910.261,248.747A14.332,14.332,0,0,0,895.3,262.425c-.014.335,0,.665.009.994l-.052.026a11.9,11.9,0,0,0,1.885,6.537c.375.662.925,1.212,1.272,1.885,10.031,19.527,57.859,31.807,75.63,31.515.014,0,1.283.209,1.928.235a11.926,11.926,0,0,0,2.154-23.735c-32.148-9.069-50.973-23.569-50.973-23.569l-10.057.516C914.8,255.052,913.389,248.876,910.261,248.747Z" transform="translate(-895.249 -239.765)" fill="#ffaf8f"/>
          <path id="Path_8665" data-name="Path 8665" d="M966.059,252.235c-.017.011-.026.031-.04.043l-.017-.014c-18.682,14.563-42.01,26.078-42.148,26.164-5.809,3.661-5.5,11.965-1.839,17.774a12.431,12.431,0,0,0,17.141,3.887c.074-.049.143-.106.218-.155,14.72-8.613,42.156-31.876,42.156-31.876l-.04-.043,0,0a11.035,11.035,0,0,0,.172-15.606C977.4,248.05,971.227,248.634,966.059,252.235Z" transform="translate(-850.296 -238.647)" fill="#ffaf8f"/>
          <path id="Path_8666" data-name="Path 8666" d="M959.291,270.9c-2.721,1.762-6.236,4.2-6.663,4.652a10.557,10.557,0,0,1-16.64-12.81l-.049-.083s14.68-28.436,12.154-11.865a1.21,1.21,0,0,0,1.65,1.275c.874-.341,1.991-.776,3.246-1.252" transform="translate(-822.21 -245.603)" fill="#ffaf8f"/>
          <path id="Path_8667" data-name="Path 8667" d="M926.747,265.27a2.958,2.958,0,0,1-2.689.857" transform="translate(-841.539 -208.936)" fill="none" stroke="#80136a" stroke-miterlimit="10" stroke-width="0.788"/>
        </g>
        <path id="Path_8668" data-name="Path 8668" d="M935.814,296.37c-21.143-11.249-34.153-14.486-34.153-14.486l-.017-.086a17.773,17.773,0,0,1-6.554-30.845c.324-.261.659-.49.991-.722l-.011-.069a14.639,14.639,0,0,1,7.863-2.948,17.287,17.287,0,0,1,2.8-.129c11.613.075,30.487,8.8,43.866,17.6C950.6,264.684,947.432,277.886,935.814,296.37Z" transform="translate(-771.741 -153.175)" fill="#ffdc8a"/>
        <path id="Path_8669" data-name="Path 8669" d="M916.927,251.748c-1.761,7.745-8.8,22.18-14.434,31.334" transform="translate(-745.813 -144.465)" fill="none" stroke="#fff" stroke-miterlimit="10" stroke-width="0.788"/>
        <path id="Path_8670" data-name="Path 8670" d="M849.937,283.495a3.756,3.756,0,0,0,1.716,2.747" transform="translate(-843.801 -85.273)" fill="none" stroke="#80136a" stroke-miterlimit="10" stroke-width="0.788"/>
        <path id="Path_8671" data-name="Path 8671" d="M898.841,260.966c0,3.667-.527,11.123-.527,14.786" transform="translate(-753.604 -127.278)" fill="none" stroke="#fff" stroke-miterlimit="10" stroke-width="0.788"/>
        <path id="Path_8672" data-name="Path 8672" d="M863.747,261.058c0,3.667.286,18.822.286,22.489" transform="translate(-818.053 -127.106)" fill="none" stroke="#fff" stroke-miterlimit="10" stroke-width="0.788"/>
        <path id="Path_8673" data-name="Path 8673" d="M877.069,314.025c8.356,1.618,18.625.811,27.058-.332" transform="translate(-793.215 -28.97)" fill="none" stroke="#fff" stroke-miterlimit="10" stroke-width="0.841"/>
        <path id="Path_8674" data-name="Path 8674" d="M1078.512,341.13l-16.078,5.231L919.692,392.788a17.5,17.5,0,0,1-22.057-11.229l-26.425-81.242a4.257,4.257,0,0,1,2.73-5.362l184.013-59.85a4.254,4.254,0,0,1,5.362,2.73l26.425,81.242A17.5,17.5,0,0,1,1078.512,341.13Z" transform="translate(-804.526 -175.887)" fill="#9c9ce3"/>
        <path id="Path_8675" data-name="Path 8675" d="M1066.173,250.848,874.068,313.331l-2.9-8.931a16.306,16.306,0,0,1,10.464-20.553l89.036-28.963,72.05-23.434a16.308,16.308,0,0,1,20.552,10.467Z" transform="translate(-805.725 -183.808)" fill="#6349e5"/>
        <path id="Rectangle_544" data-name="Rectangle 544" d="M.535,0H115.118a.535.535,0,0,1,.535.535V4.762a.534.534,0,0,1-.534.534H.535A.535.535,0,0,1,0,4.762V.535A.535.535,0,0,1,.535,0Z" transform="matrix(0.951, -0.309, 0.309, 0.951, 143.565, 129.012)" fill="#ffdc8a"/>
        <rect id="Rectangle_545" data-name="Rectangle 545" width="115.653" height="5.297" rx="0.535" transform="matrix(0.951, -0.309, 0.309, 0.951, 147.735, 142.008)" fill="#ffdc8a"/>
        <path id="Rectangle_546" data-name="Rectangle 546" d="M.535,0H115.118a.535.535,0,0,1,.535.535V4.762a.534.534,0,0,1-.534.534H.535A.535.535,0,0,1,0,4.762V.535A.535.535,0,0,1,.535,0Z" transform="matrix(0.951, -0.309, 0.309, 0.951, 151.584, 155.408)" fill="#ffdc8a"/>
        <rect id="Rectangle_547" data-name="Rectangle 547" width="62.801" height="5.351" rx="0.54" transform="translate(156.504 168.861) rotate(-18.018)" fill="#ffdc8a"/>
        <path id="Path_8676" data-name="Path 8676" d="M954.889,267c-7.184,1.681-16.857,1.667-1.687-4.787,0,0-4.87,1.235-9.029,1.828-4.188.6-9.874-.871,6.256-6.342,0,0-26.688,6.193-2.69-4.947,0,0-19.762,4.778-.55-4.566.481-.235,1.109-.567,1.793-.948,0,0,5.236-1.693,7.708,6.064C959.387,261.755,959.077,266.014,954.889,267Z" transform="translate(-680.116 -153.171)" fill="#ffaf8f"/>
        <circle id="Ellipse_102" data-name="Ellipse 102" cx="21.371" cy="21.371" r="21.371" transform="translate(92.665 140.077)" fill="#f7f7f7"/>
        <path id="Path_8677" data-name="Path 8677" d="M934.8,238.5a4.488,4.488,0,1,0-2.933,5.626A4.486,4.486,0,0,0,934.8,238.5Z" transform="translate(-701.934 -175.026)" fill="#f7f7f7"/>
        <path id="Path_8678" data-name="Path 8678" d="M939.43,237.042a4.488,4.488,0,1,0-2.936,5.626A4.491,4.491,0,0,0,939.43,237.042Z" transform="translate(-693.296 -177.744)" fill="#f7f7f7"/>
        <path id="Path_8679" data-name="Path 8679" d="M929.867,240.049a4.488,4.488,0,1,0-2.936,5.629A4.49,4.49,0,0,0,929.867,240.049Z" transform="translate(-711.128 -172.135)" fill="#f7f7f7"/>
        <g id="Group_2007" data-name="Group 2007" transform="translate(55.113 160.585)">
          <path id="Path_8680" data-name="Path 8680" d="M890.377,270.356c-2.776.69-9.072,3.326-14.592,5.7a11.947,11.947,0,0,0,6.181,23.079l.006.029a155.5,155.5,0,0,0,20.59-5.64c11.484-4.285,9.656-7.662,9.656-7.662s4.271-2.464,2.483-5.148c0,0,3.455-2.529.9-4.469,0,0,3.122-6.116-4.357-2.882-6.668,2.884-16.62,3.967-18.725,3.237-.773-.266-1.429-1.054-.441-1.613Z" transform="translate(-867.036 -270.356)" fill="#ffaf8f"/>
          <path id="Path_8681" data-name="Path 8681" d="M892.532,272.414c-3.1,2.624-9.808,4.451-13.185,5.084" transform="translate(-844.081 -266.519)" fill="none" stroke="#80136a" stroke-miterlimit="10" stroke-width="0.788"/>
          <path id="Path_8682" data-name="Path 8682" d="M891.529,274.047a32.174,32.174,0,0,1-12.062,4.222" transform="translate(-843.857 -263.474)" fill="none" stroke="#80136a" stroke-miterlimit="10" stroke-width="0.788"/>
          <path id="Path_8683" data-name="Path 8683" d="M888.88,275.717c-3.122,2.062-4.961,2.406-9.212,3.24" transform="translate(-843.483 -260.361)" fill="none" stroke="#80136a" stroke-miterlimit="10" stroke-width="0.788"/>
        </g>
      </g>
      <g id="Group_2020" data-name="Group 2020" transform="translate(153.973)">
        <path id="Path_8684" data-name="Path 8684" d="M975.088,89.364c3.8-3.558,3.675-10.023.722-14.305s-8.046-6.64-13.145-7.674c-11.976-2.426-25.769,2.475-31.541,13.245-4.993,9.324-3.729,21.592-10.633,29.6-2.95,3.423-7.055,5.609-10.544,8.482a33.168,33.168,0,0,0-6.964,7.917c-.994,1.584-1.876,3.526-1.194,5.268.75,1.919,3.185,2.713,5.2,2.289a13.275,13.275,0,0,0,5.314-3.042c-1.432,5.818-2.873,11.879-1.6,17.734s6.136,11.392,12.125,11.329c4.7-.049,8.817-3.509,11.02-7.657s2.85-8.92,3.463-13.578c-2.472,2.816.885,7.677,4.629,7.571s6.671-3.371,8.187-6.8a21.328,21.328,0,0,0,1.681-10.922" transform="translate(-901.548 -66.775)" fill="#6349e5"/>
        <path id="Path_8685" data-name="Path 8685" d="M975.088,89.364c3.8-3.558,3.675-10.023.722-14.305s-8.046-6.64-13.145-7.674c-11.976-2.426-25.769,2.475-31.541,13.245-4.993,9.324-3.729,21.592-10.633,29.6-2.95,3.423-7.055,5.609-10.544,8.482a33.168,33.168,0,0,0-6.964,7.917c-.994,1.584-1.876,3.526-1.194,5.268.75,1.919,3.185,2.713,5.2,2.289a13.275,13.275,0,0,0,5.314-3.042c-1.432,5.818-2.873,11.879-1.6,17.734s6.136,11.392,12.125,11.329c4.7-.049,8.817-3.509,11.02-7.657s2.85-8.92,3.463-13.578c-2.472,2.816.885,7.677,4.629,7.571s6.671-3.371,8.187-6.8a21.328,21.328,0,0,0,1.681-10.922" transform="translate(-901.548 -66.775)" opacity="0.5" style="mix-blend-mode: soft-light;isolation: isolate"/>
        <path id="Path_8686" data-name="Path 8686" d="M974.339,122.667c9.453-.948,16.84-10.18,17.178-19.673S986.1,84.435,978.16,79.216s-17.757-6.975-27.252-6.66a31.83,31.83,0,0,0-10.627,1.85,28.769,28.769,0,0,0-9.665,6.714,47.243,47.243,0,0,0-12.5,22.652c-2.042,8.923-1.077,19.2,5.242,25.82,7.906,8.284,21.429,8.144,32.134,4.082,6.88-2.612,14-7.8,14.222-15.156" transform="translate(-872.458 -56.063)" fill="#6349e5"/>
        <path id="Path_8687" data-name="Path 8687" d="M967.5,117.79a15.92,15.92,0,0,0-14.417-17.29c-.37-.032-.736-.032-1.1-.037l-.026-.06a13.2,13.2,0,0,0-7.347,1.762,15.79,15.79,0,0,0-2.157,1.315c-18.851,12.91-38.212,62.577-38.785,82.307,0,.017-.3,1.415-.358,2.128a13.244,13.244,0,0,0,26.221,3.592c11.687-35.207,34.23-64.625,34.23-64.625l-.031-.074A15.986,15.986,0,0,0,967.5,117.79Z" transform="translate(-898.359 -4.149)" fill="#ffaf8f"/>
        <g id="Group_2009" data-name="Group 2009" transform="translate(112.324 95.479)">
          <path id="Path_8688" data-name="Path 8688" d="M958.727,101a14.467,14.467,0,0,0-17.468,10.653c-.077.329-.126.656-.18.985l-.057.014a12,12,0,0,0,.6,6.843,14.257,14.257,0,0,0,.894,2.111c9.092,18.673,51.159,42.706,68.819,45.854.017,0,1.235.455,1.865.607a12.037,12.037,0,0,0,6.729-23.093c-30.088-15.207-53.528-39.4-53.528-39.4l-.069.02A14.518,14.518,0,0,0,958.727,101Z" transform="translate(-940.761 -99.201)" fill="#ffaf8f"/>
          <path id="Path_8689" data-name="Path 8689" d="M1012.862,105.309c-.014.011-7.726,6.978-7.737,7l-.017-.014a392.222,392.222,0,0,1-37.014,31.618,12.544,12.544,0,0,0,15.78,19.5c.072-.057.132-.123.2-.18,13.732-10.381,38.472-36.952,38.472-36.952l-.049-.04,7.706-6.952a11.135,11.135,0,0,0-1.679-15.66C1023.735,99.766,1017.614,101.084,1012.862,105.309Z" transform="translate(-898.478 -97.823)" fill="#ffaf8f"/>
          <path id="Path_8690" data-name="Path 8690" d="M1000.959,127.284A104.73,104.73,0,0,0,990.5,124.84a10.656,10.656,0,0,1-1.85-21.114l.026-.092s31.157-8.519,17.121.922a1.224,1.224,0,0,0,.18,2.1c7.3,3.549,32.073,15.984,2.988,7.324,0,0,5.322,2.736,9.536,5.265,6.442,3.867,7.722,7.608-11.386-.387,0,0,28.925,15.067-2.334,5.1C1004.783,123.955,1026.387,134.992,1000.959,127.284Z" transform="translate(-867.546 -100.108)" fill="#ffaf8f"/>
          <path id="Path_8691" data-name="Path 8691" d="M969.687,120.322a2.987,2.987,0,0,1-.444,2.816" transform="translate(-887.657 -62.419)" fill="none" stroke="#80136a" stroke-miterlimit="10" stroke-width="0.788"/>
        </g>
        <path id="Path_8692" data-name="Path 8692" d="M967.807,82.84c-.115-.392-.261-.753-.4-1.114-1.361,1.063-27.788-5.417-36.6-.507.667,4.32.888,24.9-.192,22.039a6.246,6.246,0,0,0-1.335-.083,7.061,7.061,0,1,0,.839,14.1,7,7,0,0,0,2.925-.851s3.025,22.251,3.128,22.97a16.181,16.181,0,1,0,32.036-4.586c-.1-.673-1.693-10.868-1.693-10.868,8.023-4.013,8.086-12.859,5.866-20.389S967.807,82.84,967.807,82.84Z" transform="translate(-862.246 -43.317)" fill="#ffaf8f"/>
        <path id="Path_8693" data-name="Path 8693" d="M930.139,93.242a3.877,3.877,0,0,0-5.978-3.414" transform="translate(-859.387 -24.923)" fill="none" stroke="#80136a" stroke-miterlimit="10" stroke-width="0.788"/>
        <path id="Path_8694" data-name="Path 8694" d="M926.945,89.559a5.4,5.4,0,0,0-2.263,2.469" transform="translate(-858.415 -24.296)" fill="none" stroke="#80136a" stroke-miterlimit="10" stroke-width="0.788"/>
        <path id="Path_8695" data-name="Path 8695" d="M944.006,94.92a25.167,25.167,0,0,1-9.307,2.326l10.636,6.964Z" transform="translate(-839.739 -14.301)" fill="#fc5151" opacity="0.35"/>
        <path id="Path_8696" data-name="Path 8696" d="M936.187,87.491c.163,1.14.759,2,1.332,1.919s.9-1.074.736-2.217-.759-2-1.329-1.919S936.024,86.348,936.187,87.491Z" transform="translate(-837.042 -32.296)" fill="#80136a"/>
        <path id="Path_8697" data-name="Path 8697" d="M933.334,87.9c.163,1.14-.166,2.134-.736,2.214s-1.168-.776-1.332-1.919.166-2.134.739-2.217S933.171,86.757,933.334,87.9Z" transform="translate(-846.217 -30.983)" fill="#80136a"/>
        <path id="Path_8698" data-name="Path 8698" d="M934.5,85.57c-.418,2.518,1.08,4.517,3.306,5.758,1.638.911.034,3.575-2.045,3.245" transform="translate(-840.234 -31.733)" fill="none" stroke="#80136a" stroke-miterlimit="10" stroke-width="0.788"/>
        <path id="Path_8699" data-name="Path 8699" d="M936.9,90.98c.556,1.237,2.492,1.57,4.323.745s2.865-2.495,2.306-3.732-2.492-1.573-4.323-.748S936.34,89.742,936.9,90.98Z" transform="translate(-835.92 -29.455)" fill="#fc5151" opacity="0.35"/>
        <path id="Path_8700" data-name="Path 8700" d="M928.379,90.266c-.1,1.355,1.441,2.572,3.443,2.721s3.707-.828,3.807-2.183-1.441-2.569-3.443-2.718S928.479,88.914,928.379,90.266Z" transform="translate(-851.531 -27.071)" fill="#fc5151" opacity="0.35"/>
        <path id="Path_8701" data-name="Path 8701" d="M999.542,137.325s3.669-20.088,3.976-33.909a130.362,130.362,0,0,0-26.344-4.274s-2.1,8.215-16.459,8.347c-14.357-.132-16.909-8.115-16.909-8.115a131.678,131.678,0,0,0-25.895,4.042c.309,13.821,3.976,33.909,3.976,33.909-7.958,18.493,2.449,26.846,2.449,26.846l-.613,49.518,36.648,5.271v.1l.344-.049.344.049v-.1l36.648-5.271-.61-49.518S1007.5,155.818,999.542,137.325Z" transform="translate(-871.04 -6.429)" fill="#f04aea"/>
        <path id="Path_8702" data-name="Path 8702" d="M999.542,137.325s3.669-20.088,3.976-33.909a130.362,130.362,0,0,0-26.344-4.274s-2.1,8.215-16.459,8.347c-14.357-.132-16.909-8.115-16.909-8.115a131.678,131.678,0,0,0-25.895,4.042c.309,13.821,3.976,33.909,3.976,33.909-7.958,18.493,2.449,26.846,2.449,26.846l-.613,49.518,36.648,5.271v.1l.344-.049.344.049v-.1l36.648-5.271-.61-49.518S1007.5,155.818,999.542,137.325Z" transform="translate(-871.04 -6.429)" fill="#0e0e8c" opacity="0.5"/>
        <path id="Path_8703" data-name="Path 8703" d="M924.992,99.7c3.443,9.868,15.674,15.494,25.943,13.557" transform="translate(-857.837 -5.394)" fill="none" stroke="#fff" stroke-miterlimit="10" stroke-width="0.767"/>
        <path id="Path_8704" data-name="Path 8704" d="M936.828,110.729a19.368,19.368,0,0,0,10.836-11.091" transform="translate(-835.77 -5.504)" fill="none" stroke="#fff" stroke-miterlimit="10" stroke-width="0.767"/>
        <path id="Path_8705" data-name="Path 8705" d="M919.37,117.612a22.517,22.517,0,0,1,6.451-7.9" transform="translate(-868.319 13.284)" fill="none" stroke="#fff" stroke-miterlimit="10" stroke-width="0.767"/>
        <path id="Path_8706" data-name="Path 8706" d="M919.757,100.35c.2,9.284.957,19.163,3.262,28.158" transform="translate(-867.598 -4.176)" fill="none" stroke="#fff" stroke-miterlimit="10" stroke-width="0.767"/>
        <path id="Path_8707" data-name="Path 8707" d="M950.536,117.612a22.515,22.515,0,0,0-6.451-7.9" transform="translate(-822.239 13.284)" fill="none" stroke="#fff" stroke-miterlimit="10" stroke-width="0.767"/>
        <path id="Path_8708" data-name="Path 8708" d="M948.552,100.53a122.118,122.118,0,0,1-3.741,27.642" transform="translate(-820.886 -3.841)" fill="none" stroke="#fff" stroke-miterlimit="10" stroke-width="0.767"/>
        <path id="Path_8709" data-name="Path 8709" d="M971.7,92.084c-7.642,2.538-18.971-.407-25.826-4.632,1.332,1.555,2.968,3.46,1.764,4.446-1.49,1.226-9.418-1.386-12.051-3.191,1.008,1.263,4.735,4.3,3.624,5.411s-4.595.023-6.368-1.756a64.756,64.756,0,0,1,4.13,16.219c.653,5.514-2,3.85-2.988,3.059-6.37-5.107-11.968-12.8-11.787-20.962a14.467,14.467,0,0,1,1.613-7.006c2.558-4.406,8.124-5.9,13.151-6.72,6.35-1.04,12.927-1.65,19.172-.092s12.165,5.62,14.506,11.615" transform="translate(-863.045 -49.737)" fill="#6349e5"/>
        <g id="Group_2012" data-name="Group 2012" transform="translate(81.828 46.566)">
          <g id="Group_2010" data-name="Group 2010" transform="translate(0 1.22)">
            <path id="Path_8710" data-name="Path 8710" d="M931.213,86.782c.728-.255,1.341-.762,2.088-.994a18.207,18.207,0,0,0,2.191-.564.711.711,0,0,0,.14-1.206c-1.552-1.321-4.858-.129-5.471,1.736a.8.8,0,0,0,1.051,1.028Z" transform="translate(-930.115 -83.457)" fill="#6349e5"/>
          </g>
          <g id="Group_2011" data-name="Group 2011" transform="translate(14.837)">
            <path id="Path_8711" data-name="Path 8711" d="M941.2,84.86c-.788-1.916-4.463-2.506-5.772-.9a.705.705,0,0,0,.3,1.071,15.511,15.511,0,0,0,2.343.246c.811.106,1.53.57,2.326.653a.779.779,0,0,0,.8-1.074Z" transform="translate(-935.294 -83.032)" fill="#6349e5"/>
          </g>
        </g>
        <path id="Path_8712" data-name="Path 8712" d="M927.161,91.841a3.43,3.43,0,0,1,1.455,2.8c.109,1.73-.733,3.191-1.885,3.265s-2.174-1.272-2.283-3a4.472,4.472,0,0,1,.06-1.1" transform="translate(-858.87 -20.041)" fill="none" stroke="#fff" stroke-miterlimit="10" stroke-width="0.767"/>
        <g id="Group_2014" data-name="Group 2014" transform="translate(86.18 63.382)">
          <g id="Group_2013" data-name="Group 2013">
            <path id="Path_8713" data-name="Path 8713" d="M941.929,91.365a6.17,6.17,0,0,1-4.531-1.338c-1.564-1.011-3.008-1.53-4.222-.745-2.773,1.787-1.421,5.345,1.037,6.961,2.63,1.73,7,1.653,9.37-.3S944.358,91.116,941.929,91.365Z" transform="translate(-931.634 -88.902)" fill="#f7f7f7"/>
          </g>
          <path id="Path_8714" data-name="Path 8714" d="M931.8,89.548a11.221,11.221,0,0,0,6.038,2.93" transform="translate(-931.325 -87.698)" fill="none" stroke="#80136a" stroke-miterlimit="10" stroke-width="0.788"/>
        </g>
        <g id="Group_2018" data-name="Group 2018" transform="translate(47.321 195.069)">
          <path id="Path_8715" data-name="Path 8715" d="M981.883,247l40.985-72.141A17.93,17.93,0,1,0,991.06,158.3l-37.642,74.614c-.235.37-3.581,8.762-2.426,9.521a15.961,15.961,0,0,0,24.838,12.26C976.291,254.862,981.653,247.609,981.883,247Z" transform="translate(-857.132 -109.204)" fill="#ffaf8f"/>
          <path id="Path_8716" data-name="Path 8716" d="M981.883,247l40.985-72.141A17.93,17.93,0,1,0,991.06,158.3l-37.642,74.614c-.235.37-3.581,8.762-2.426,9.521a15.961,15.961,0,0,0,24.838,12.26C976.291,254.862,981.653,247.609,981.883,247Z" transform="translate(-857.132 -109.204)" fill="#fc5151" opacity="0.35"/>
          <path id="Path_8717" data-name="Path 8717" d="M989.792,206.092l17.382-31.234A17.93,17.93,0,1,0,975.367,158.3l-16.2,31.652A102.151,102.151,0,0,0,989.792,206.092Z" transform="translate(-841.439 -109.204)" fill="#0e0e8c"/>
          <path id="Path_8718" data-name="Path 8718" d="M949,180.335A18.574,18.574,0,1,1,954.53,143.6c.4.057,87.369,14.451,88.039,14.551a17.92,17.92,0,0,1-4.7,35.525l0,.034Z" transform="translate(-889.874 -118.996)" fill="#0e0e8c"/>
          <path id="Path_8719" data-name="Path 8719" d="M991.41,175.94a118.082,118.082,0,0,1-30.429-16.325" transform="translate(-838.058 -88.748)" fill="none" stroke="#fff" stroke-miterlimit="10" stroke-width="0.764"/>
          <g id="Group_2015" data-name="Group 2015" transform="translate(86.782 123.433)">
            <path id="Path_8720" data-name="Path 8720" d="M985.973,192.856l-6.139,12.034,11.005,14.2-42.475-22.111,9.592-19.016Z" transform="translate(-948.364 -177.966)" fill="#6349e5"/>
            <path id="Path_8721" data-name="Path 8721" d="M962.187,189.141l-2.689-.126" transform="translate(-927.607 -157.366)" fill="none" stroke="#fff" stroke-miterlimit="10" stroke-width="0.662"/>
            <path id="Path_8722" data-name="Path 8722" d="M961.527,188.072l-2.687-.129" transform="translate(-928.832 -159.365)" fill="none" stroke="#fff" stroke-miterlimit="10" stroke-width="0.662"/>
          </g>
          <path id="Path_8723" data-name="Path 8723" d="M959.835,138.332a214.466,214.466,0,0,1-36.344-3.457s-3.684,18.25-4.331,23.262c-.814,6.287-1.091,18.192-1.091,18.192,0,8.379,4.617,16.453,11.38,19.4l25.222,2.687h12.016l25.222-2.687c6.763-2.95,11.38-11.025,11.38-19.4,0,0-.338-9.39-1.154-18.192s-4.855-22.7-4.855-22.7A281,281,0,0,1,959.835,138.332Z" transform="translate(-918.068 -134.875)" fill="#0e0e8c"/>
          <path id="Path_8724" data-name="Path 8724" d="M939.241,139.416a2.638,2.638,0,1,0-2.638,2.638A2.641,2.641,0,0,0,939.241,139.416Z" transform="translate(-888.429 -131.333)" fill="#e0e8ed"/>
          <g id="Group_2016" data-name="Group 2016" transform="translate(1.879 2.375)">
            <path id="Path_8725" data-name="Path 8725" d="M923.243,141.613a16.874,16.874,0,0,0,2.5-5.909" transform="translate(-910.299 -135.704)" fill="none" stroke="#fff" stroke-miterlimit="10" stroke-width="0.764"/>
            <path id="Path_8726" data-name="Path 8726" d="M919.075,143.533a16.617,16.617,0,0,0,9.186-4.618" transform="translate(-918.07 -129.717)" fill="none" stroke="#fff" stroke-miterlimit="10" stroke-width="0.764"/>
            <path id="Path_8727" data-name="Path 8727" d="M918.724,155.968c9.991-1.129,19.421-10.226,21.229-20.12" transform="translate(-918.724 -135.435)" fill="none" stroke="#fff" stroke-miterlimit="10" stroke-width="0.764"/>
            <path id="Path_8728" data-name="Path 8728" d="M956.365,149.35c-6.843-.874-13.306-6.792-14.672-13.555" transform="translate(-875.899 -135.534)" fill="none" stroke="#fff" stroke-miterlimit="10" stroke-width="0.764"/>
            <path id="Path_8729" data-name="Path 8729" d="M952.7,152.908c-6.548-3.75-11.885-9.914-13.174-16.969" transform="translate(-879.934 -135.266)" fill="none" stroke="#fff" stroke-miterlimit="10" stroke-width="0.764"/>
            <path id="Path_8730" data-name="Path 8730" d="M950.212,143.636a20.13,20.13,0,0,1-4.875-1.2" transform="translate(-869.105 -123.152)" fill="none" stroke="#fff" stroke-miterlimit="10" stroke-width="0.764"/>
            <path id="Path_8731" data-name="Path 8731" d="M932.626,136.411c.166,11.77.166,14.334.332,26.1" transform="translate(-892.804 -134.386)" fill="none" stroke="#fff" stroke-miterlimit="10" stroke-width="0.764"/>
          </g>
          <path id="Path_8732" data-name="Path 8732" d="M1018.571,235.044,984,160.969a17.931,17.931,0,0,0-33.047,13.924l39.641,75.178c.166.4,5.064,7.995,6.351,7.5a15.963,15.963,0,0,0,24.388-13.131C1021.736,244.159,1018.934,235.586,1018.571,235.044Z" transform="translate(-859.392 -106.682)" fill="#ffaf8f"/>
          <path id="Path_8733" data-name="Path 8733" d="M998.921,192.1,984,160.969a17.931,17.931,0,0,0-33.047,13.924l17.067,32.8A102.171,102.171,0,0,0,998.921,192.1Z" transform="translate(-859.392 -106.682)" fill="#0e0e8c"/>
          <path id="Path_8734" data-name="Path 8734" d="M933.247,180.61a18.575,18.575,0,1,1,7.244-36.436c.389.077,86.6,18.533,87.257,18.665a17.919,17.919,0,0,1-6.356,35.264l-.006.031Z" transform="translate(-917.653 -118.208)" fill="#0e0e8c"/>
          <path id="Path_8735" data-name="Path 8735" d="M985.175,161.31a118.157,118.157,0,0,1-30.945,15.328" transform="translate(-850.645 -85.588)" fill="none" stroke="#fff" stroke-miterlimit="10" stroke-width="0.764"/>
          <g id="Group_2017" data-name="Group 2017" transform="translate(131.026 128.961)">
            <path id="Path_8736" data-name="Path 8736" d="M992.185,179.9l6.247,11.979,17.952-.734-42.641,21.79-9.933-18.84Z" transform="translate(-963.81 -179.896)" fill="#6349e5"/>
            <path id="Path_8737" data-name="Path 8737" d="M978.986,184.175q-.829,1.061-1.661,2.117" transform="translate(-938.611 -171.918)" fill="none" stroke="#fff" stroke-miterlimit="10" stroke-width="0.662"/>
            <path id="Path_8738" data-name="Path 8738" d="M977.733,184.09l-1.662,2.117" transform="translate(-940.949 -172.077)" fill="none" stroke="#fff" stroke-miterlimit="10" stroke-width="0.662"/>
          </g>
          <path id="Path_8739" data-name="Path 8739" d="M950.14,145.239c-1.518.175-4.168.911-5.2,2.037" transform="translate(-867.964 -115.552)" fill="#9b8da6"/>
          <path id="Path_8740" data-name="Path 8740" d="M929.781,144.683q36.178,6.6,71.93,15.331c4.881,1.189,14.176,2.647,17.634,6.58,5.821,6.623,16.66,36.731,16.66,36.731" transform="translate(-896.229 -116.588)" fill="none" stroke="#fff" stroke-miterlimit="10" stroke-width="0.764"/>
          <path id="Path_8741" data-name="Path 8741" d="M933.461,145.9a15.53,15.53,0,0,0-7.823-1.833" transform="translate(-903.954 -117.759)" fill="none" stroke="#fff" stroke-miterlimit="10" stroke-width="0.764"/>
          <path id="Path_8742" data-name="Path 8742" d="M927.218,143a2.7,2.7,0,0,1,2.458,1.094" transform="translate(-901.008 -119.752)" fill="none" stroke="#fff" stroke-miterlimit="10" stroke-width="0.764"/>
          <path id="Path_8743" data-name="Path 8743" d="M945.951,144.486a2.7,2.7,0,0,0-1.816,1.8" transform="translate(-869.467 -116.956)" fill="none" stroke="#fff" stroke-miterlimit="10" stroke-width="0.764"/>
          <path id="Path_8744" data-name="Path 8744" d="M922.041,142.306c-1.217,7.966-3.529,17.075,3.073,23.2s81.25,18.152,89.7,21.781c6.935,2.979,9.877,16.517,16.259,30.71" transform="translate(-913.276 -121.02)" fill="none" stroke="#fff" stroke-miterlimit="10" stroke-width="0.764"/>
        </g>
        <g id="Group_2019" data-name="Group 2019" transform="translate(77.833 172.248)">
          <path id="Path_8745" data-name="Path 8745" d="M931.5,145.459s70.938-.828,73-1.375,20.613,6.035,20.613,6.035l-1.011,5.354-95.381-4.646Z" transform="translate(-928.72 -94.944)" fill="#cdb8f2"/>
          <path id="Path_8746" data-name="Path 8746" d="M931.5,145.459s70.938-.828,73-1.375,20.613,6.035,20.613,6.035l-1.011,5.354-95.381-4.646Z" transform="translate(-928.72 -94.944)" opacity="0.5" style="mix-blend-mode: soft-light;isolation: isolate"/>
          <path id="Path_8747" data-name="Path 8747" d="M961.744,140.086a2.971,2.971,0,0,1,.524,2.386" transform="translate(-867.148 -102.338)" fill="none" stroke="#5c3146" stroke-miterlimit="10" stroke-width="0.571"/>
          <path id="Path_8748" data-name="Path 8748" d="M994.4,148.489l-62.807-3.944-2.87,5.362,51.369,3.143Z" transform="translate(-928.72 -94.025)" fill="#cdb8f2"/>
          <path id="Path_8749" data-name="Path 8749" d="M1040.329,130.208l-72.208-3.3-21.684,59.069,68.544,2.209Z" transform="translate(-895.687 -126.908)" fill="#cdb8f2"/>
          <path id="Path_8750" data-name="Path 8750" d="M948.912,145.528l-2.475,5.733,68.882,2.322,1.69-5.069Z" transform="translate(-895.687 -92.192)" fill="#f7f7f7"/>
          <path id="Path_8751" data-name="Path 8751" d="M969.983,143.424a4.112,4.112,0,0,0-.839-5.812,4.313,4.313,0,0,0-5.769,1.613,4.11,4.11,0,0,0,.839,5.812A4.313,4.313,0,0,0,969.983,143.424Z" transform="translate(-865.634 -107.982)" fill="#fff"/>
        </g>
        <path id="Path_8752" data-name="Path 8752" d="M969.048,148.63a.443.443,0,0,0-.06-.011l.006-.023a410.1,410.1,0,0,1-46.814-20.16,13.135,13.135,0,0,0-11.031,23.841c.086.04.175.069.261.106,16.1,8.1,52.5,19.063,52.5,19.063l.011-.06h.006a11.663,11.663,0,0,0,13.938-8.82C979.28,156.284,975.212,151.142,969.048,148.63Z" transform="translate(-897.857 45.92)" fill="#ffaf8f"/>
        <path id="Path_8753" data-name="Path 8753" d="M970.255,146.829s12.366,2.292,14.852.765c1.991-1.223-5.007-4.156-14.875-6.769-7.448-1.971-33.941-5.723-33.981-5.74a11.592,11.592,0,1,0-6.987,22.016l-.031.1s22.9,7.273,30.581.533c0,0,5.915,5.961,11.22,8.805,5.5,2.948-2.73-8.871-2.73-8.871s9.765,8.917,11.962,6.992-10.115-11.53-10.115-11.53,4.827,3.211,8.636,5.637C984.947,162.692,991.925,162.01,970.255,146.829Z" transform="translate(-866.622 58.979)" fill="#ffaf8f"/>
        <path id="Path_8754" data-name="Path 8754" d="M905.957,132.531a3.288,3.288,0,0,0,3.031.808" transform="translate(-893.327 55.824)" fill="none" stroke="#80136a" stroke-miterlimit="10" stroke-width="0.788"/>
      </g>
    </g>
  </g>
</svg>
